<svg xmlns="http://www.w3.org/2000/svg" width="1132" height="739" fill="none"><g filter="url(#a)"><g clip-path="url(#b)"><path fill="#fff" d="M64 32h1004v611H64z"/><path fill="#fff" d="M64 136h1004v507H64z"/><g clip-path="url(#c)"><path fill="#fff" d="M84 140.5h212a3.5 3.5 0 0 1 3.5 3.5v24a3.5 3.5 0 0 1-3.5 3.5H84a3.5 3.5 0 0 1-3.5-3.5v-24a3.5 3.5 0 0 1 3.5-3.5"/><path stroke="#d1d1d1" d="M84 140.5h212a3.5 3.5 0 0 1 3.5 3.5v24a3.5 3.5 0 0 1-3.5 3.5H84a3.5 3.5 0 0 1-3.5-3.5v-24a3.5 3.5 0 0 1 3.5-3.5Z"/><path fill="#616161" d="M101.309 158.016a4.5 4.5 0 1 1 .707-.707l3.838 3.837a.502.502 0 0 1-.708.708zM102 154.5a3.5 3.5 0 1 0-7 0 3.5 3.5 0 0 0 7 0"/><path fill="#707070" d="M112.827 160.604v-1.354q.233.205.554.369.328.165.683.28.363.11.725.171.363.062.67.062 1.06 0 1.579-.39.526-.396.526-1.135 0-.396-.177-.69a1.9 1.9 0 0 0-.479-.533 4.4 4.4 0 0 0-.731-.465q-.417-.225-.903-.472-.511-.26-.957-.526a4.2 4.2 0 0 1-.772-.588 2.5 2.5 0 0 1-.52-.725 2.3 2.3 0 0 1-.184-.957q0-.67.294-1.162.294-.499.772-.82a3.5 3.5 0 0 1 1.087-.479 5 5 0 0 1 1.251-.157q1.449 0 2.112.349v1.292q-.867-.602-2.228-.602-.376 0-.752.082-.376.076-.67.253a1.5 1.5 0 0 0-.478.458 1.2 1.2 0 0 0-.185.684q0 .376.137.649.142.274.417.499.273.226.663.438.396.212.909.465.527.26.998.546.471.288.827.636t.561.773q.212.423.212.97 0 .725-.288 1.231a2.3 2.3 0 0 1-.765.813q-.478.315-1.108.452a6 6 0 0 1-1.326.143q-.232 0-.574-.041a7 7 0 0 1-.697-.109 6 6 0 0 1-.677-.171 2.2 2.2 0 0 1-.506-.239m13.371-2.824h-4.942q.027 1.17.629 1.805.601.636 1.654.636 1.182 0 2.174-.78v1.053q-.923.67-2.441.67-1.482 0-2.331-.95-.847-.957-.847-2.687 0-1.633.923-2.659.929-1.032 2.303-1.032t2.126.889.752 2.467zm-1.148-.95q-.007-.97-.472-1.511-.458-.54-1.278-.54-.794 0-1.347.568-.554.567-.683 1.483zm7.861 4.17h-1.121v-1.094h-.027q-.732 1.258-2.154 1.258-1.046 0-1.64-.554-.588-.554-.588-1.469 0-1.962 2.31-2.284l2.099-.294q0-1.784-1.442-1.784-1.265 0-2.284.862v-1.149q1.033-.656 2.379-.656 2.468 0 2.468 2.611zm-1.121-3.541-1.688.232q-.78.11-1.176.39-.397.273-.397.978 0 .512.363.84.37.322.977.322.834 0 1.374-.581.547-.588.547-1.484zm6.884-2.324q-.294-.226-.848-.226-.717 0-1.203.677-.478.676-.478 1.846V161h-1.122v-7h1.122v1.442h.027q.239-.738.731-1.148a1.66 1.66 0 0 1 1.101-.417q.438 0 .67.096zm5.988 5.544q-.807.485-1.914.485-1.497 0-2.42-.971-.916-.977-.916-2.529 0-1.73.991-2.775.992-1.053 2.646-1.053.922 0 1.627.342v1.148q-.78-.547-1.668-.547-1.074 0-1.764.773-.684.765-.683 2.016 0 1.231.642 1.942.65.711 1.736.711.916 0 1.723-.609zm7.506.321h-1.121v-4.033q0-2.188-1.627-2.188-.82 0-1.381.636-.56.629-.56 1.62V161h-1.122v-10.363h1.122v4.525h.027q.807-1.326 2.297-1.326 2.365 0 2.365 2.851zm9.42-9.379a1.5 1.5 0 0 0-.745-.184q-1.176 0-1.176 1.483V154h1.641v.957h-1.641V161h-1.114v-6.043h-1.197V154h1.197v-1.135q0-1.1.635-1.736.636-.643 1.586-.643.513 0 .814.123zm1.504.602a.713.713 0 0 1-.725-.725.7.7 0 0 1 .212-.519.7.7 0 0 1 .513-.212q.308 0 .519.212a.68.68 0 0 1 .219.519.69.69 0 0 1-.219.513.7.7 0 0 1-.519.212m.547 8.777h-1.121v-7h1.121zm3.39 0h-1.121v-10.363h1.121zm5.517-.068q-.396.218-1.046.218-1.839 0-1.839-2.05v-4.143h-1.203V154h1.203v-1.709l1.121-.362V154h1.764v.957h-1.764v3.944q0 .705.239 1.005.24.301.793.301.424 0 .732-.232zm7.123-3.152h-4.942q.027 1.17.628 1.805.602.636 1.655.636 1.182 0 2.174-.78v1.053q-.924.67-2.441.67-1.483 0-2.331-.95-.848-.957-.848-2.687 0-1.633.923-2.659.93-1.032 2.304-1.032t2.126.889.752 2.467zm-1.148-.95q-.007-.97-.472-1.511-.459-.54-1.278-.54-.793 0-1.347.568-.554.567-.684 1.483zm6.5-1.695q-.293-.226-.847-.226-.718 0-1.203.677-.479.676-.479 1.846V161h-1.121v-7h1.121v1.442h.028q.239-.738.731-1.148a1.66 1.66 0 0 1 1.101-.417q.437 0 .669.096zm.793 5.612v-1.203a3.32 3.32 0 0 0 2.017.677q1.476 0 1.477-.985a.82.82 0 0 0-.13-.471 1.2 1.2 0 0 0-.342-.349 2.4 2.4 0 0 0-.506-.267 20 20 0 0 0-.622-.253 9 9 0 0 1-.82-.369 2.7 2.7 0 0 1-.588-.423 1.7 1.7 0 0 1-.356-.541 2 2 0 0 1-.116-.704q0-.492.226-.868.226-.382.601-.636.377-.26.855-.389.485-.13.998-.13.909 0 1.627.314v1.135q-.773-.506-1.778-.506-.314 0-.567.075a1.4 1.4 0 0 0-.437.199 1 1 0 0 0-.281.314.8.8 0 0 0-.095.397q0 .273.095.458.103.184.294.328.192.144.465.26.273.115.622.252.465.178.834.37.37.184.629.423.26.232.396.541.144.307.144.731 0 .52-.232.902a1.9 1.9 0 0 1-.609.636 2.8 2.8 0 0 1-.882.376 4.4 4.4 0 0 1-1.045.123q-1.081 0-1.874-.417"/><path fill="#616161" d="M80 171h220v1H80z"/></g><path fill="#424242" d="M99.53 197H97.9l-1.341-2.25a4 4 0 0 0-.358-.527 2 2 0 0 0-.351-.364 1.2 1.2 0 0 0-.387-.205 1.6 1.6 0 0 0-.475-.064h-.562V197h-1.389v-8.402h2.766q.591 0 1.09.14.497.141.867.428.369.282.574.709.21.422.21.99 0 .446-.134.821a2.1 2.1 0 0 1-.375.662 2.3 2.3 0 0 1-.586.492 2.9 2.9 0 0 1-.767.316v.024q.228.129.398.287.17.152.322.316.152.165.3.375.15.205.333.481zm-5.104-7.271v2.73h1.16q.322 0 .592-.1a1.295 1.295 0 0 0 .785-.744q.111-.27.111-.603 0-.604-.38-.944-.382-.339-1.096-.339zm10.699 4.64h-4.09q.024.833.51 1.283.492.452 1.348.452.96 0 1.763-.575v1.096q-.82.516-2.168.516-1.324 0-2.08-.815-.75-.82-.75-2.303 0-1.4.826-2.279.833-.885 2.063-.885t1.904.791q.674.792.674 2.198zm-1.313-.961q-.005-.732-.345-1.137-.34-.41-.938-.41-.585 0-.996.428-.404.427-.498 1.119zm6.903 3.317q-.721.416-1.705.416-1.337 0-2.156-.832-.82-.839-.821-2.168 0-1.484.879-2.379.885-.903 2.361-.903.82 0 1.448.287v1.266q-.627-.469-1.336-.469-.861 0-1.412.586-.552.58-.551 1.524 0 .931.516 1.47.52.54 1.394.539.732 0 1.383-.521zm6.433-2.356h-4.089q.023.833.509 1.283.493.452 1.348.452.962 0 1.764-.575v1.096q-.82.516-2.168.516-1.324 0-2.08-.815-.75-.82-.75-2.303 0-1.4.826-2.279.832-.885 2.062-.885t1.905.791q.673.792.673 2.198zm-1.312-.961q-.006-.732-.346-1.137-.34-.41-.937-.41-.587 0-.996.428-.405.427-.498 1.119zm7.951 3.592h-1.359v-3.381q0-1.681-1.19-1.681-.621 0-1.025.468-.404.463-.404 1.172V197h-1.366v-6h1.366v.996h.023q.674-1.137 1.945-1.137.98 0 1.494.639.516.633.516 1.834zm4.828-.064q-.398.199-1.049.199-1.746 0-1.746-1.676v-3.393h-1.002V191h1.002v-1.389l1.36-.386V191h1.435v1.066h-1.435v3q0 .534.193.762.194.228.645.229.345 0 .597-.2zm2.537.064h-1.365v-8.883h1.365zm6.973-6-2.707 6.961q-.845 1.863-2.367 1.863-.428 0-.715-.076v-1.131q.322.106.586.106.762 0 1.137-.75l.404-.985-2.385-5.988h1.506l1.43 4.359q.023.083.105.434h.029q.03-.135.106-.422l1.5-4.371zm9.445 6h-1.359v-.949h-.023q-.592 1.09-1.84 1.09-2.127 0-2.127-2.555V191h1.359v3.445q0 1.617 1.248 1.617.604 0 .99-.445.393-.445.393-1.166V191h1.359zm1.401-.188v-1.259q.762.58 1.681.58 1.231 0 1.231-.727a.55.55 0 0 0-.106-.345 1 1 0 0 0-.287-.258 2 2 0 0 0-.422-.199l-.539-.2a6 6 0 0 1-.668-.31 2.2 2.2 0 0 1-.492-.369 1.5 1.5 0 0 1-.293-.475 1.8 1.8 0 0 1-.099-.615q0-.433.205-.762a1.74 1.74 0 0 1 .55-.557q.346-.228.786-.339.439-.118.908-.118.832 0 1.488.252v1.19a2.5 2.5 0 0 0-1.453-.434q-.258 0-.469.053a1.2 1.2 0 0 0-.351.146.7.7 0 0 0-.229.229.52.52 0 0 0-.082.287q0 .193.082.328t.24.24q.165.1.387.188.228.082.522.182.386.157.691.322.31.164.527.375.217.206.334.48.117.27.117.645 0 .456-.21.797a1.8 1.8 0 0 1-.563.562 2.6 2.6 0 0 1-.814.328 4 4 0 0 1-.967.112q-.985 0-1.705-.329m10.634-2.443h-4.089q.023.833.509 1.283.493.452 1.348.452.962 0 1.764-.575v1.096q-.82.516-2.168.516-1.324 0-2.08-.815-.75-.82-.75-2.303 0-1.4.826-2.279.832-.885 2.062-.885t1.905.791q.673.792.673 2.198zm-1.312-.961q-.006-.732-.346-1.137-.34-.41-.937-.41-.587 0-.996.428-.405.427-.498 1.119zm8.062 3.592h-1.359v-1.02h-.023q-.657 1.161-2.022 1.161-1.107 0-1.775-.803-.663-.809-.662-2.197 0-1.489.732-2.385.738-.897 1.963-.897 1.213 0 1.764.973h.023v-3.715h1.359zm-1.341-2.742v-.785q0-.639-.416-1.084a1.4 1.4 0 0 0-1.061-.446q-.762 0-1.201.569-.434.568-.434 1.576 0 .914.416 1.447.423.528 1.131.527.697 0 1.131-.509.434-.516.434-1.295M99.957 233.59q-1.087.574-2.707.574-2.091 0-3.35-1.347-1.257-1.345-1.257-3.534 0-2.351 1.415-3.801 1.415-1.449 3.588-1.449 1.395 0 2.311.404v1.223a4.7 4.7 0 0 0-2.324-.588q-1.69 0-2.741 1.128-1.046 1.128-1.046 3.015 0 1.79.977 2.857.986 1.06 2.577 1.06 1.477 0 2.557-.656zm6.856.41h-1.121v-1.094h-.027q-.732 1.258-2.153 1.258-1.046 0-1.641-.554-.588-.554-.588-1.469 0-1.962 2.311-2.284l2.098-.294q0-1.784-1.442-1.784-1.264 0-2.283.862v-1.149q1.032-.656 2.379-.656 2.467 0 2.467 2.611zm-1.121-3.541-1.688.232q-.78.11-1.176.39-.396.273-.396.978 0 .512.362.84.37.322.977.322.834 0 1.375-.581.546-.588.546-1.484zM118.865 234h-1.121v-4.02q0-1.162-.362-1.681-.356-.52-1.203-.52-.719 0-1.224.657-.5.655-.499 1.572V234h-1.121v-4.156q0-2.065-1.593-2.065-.738 0-1.217.622-.478.616-.478 1.607V234h-1.121v-7h1.121v1.107h.027q.746-1.27 2.174-1.271.719 0 1.251.403.533.397.731 1.046.78-1.449 2.325-1.449 2.31 0 2.31 2.851zm3.268-1.012h-.028v4.232h-1.121V227h1.121v1.23h.028q.827-1.394 2.42-1.394 1.353 0 2.112.943.759.937.759 2.516 0 1.757-.855 2.816-.854 1.053-2.338 1.053-1.36 0-2.098-1.176m-.028-2.823v.978q0 .868.561 1.476.567.602 1.436.602 1.019 0 1.592-.78.582-.778.581-2.167 0-1.169-.54-1.832t-1.463-.663q-.976 0-1.572.684-.594.676-.595 1.702M134.226 234h-1.122v-1.094h-.027q-.73 1.258-2.153 1.258-1.045 0-1.641-.554-.588-.554-.588-1.469 0-1.962 2.311-2.284l2.098-.294q0-1.784-1.442-1.784-1.264 0-2.283.862v-1.149q1.032-.656 2.379-.656 2.468 0 2.468 2.611zm-1.122-3.541-1.688.232q-.78.11-1.176.39-.396.273-.396.978 0 .512.362.84.369.322.978.322.834 0 1.374-.581.546-.588.546-1.484zm3.808-5.236a.72.72 0 0 1-.513-.205.7.7 0 0 1-.211-.52q0-.315.211-.519a.7.7 0 0 1 .513-.212q.307 0 .52.212a.68.68 0 0 1 .218.519.7.7 0 0 1-.218.513.7.7 0 0 1-.52.212m.547 8.777h-1.121v-7h1.121zm8.244-.561q0 3.856-3.691 3.856-1.3 0-2.27-.492v-1.121q1.184.656 2.256.656 2.584 0 2.584-2.748v-.766h-.027q-.8 1.34-2.407 1.34-1.305 0-2.105-.93-.793-.936-.793-2.508 0-1.785.854-2.837.862-1.053 2.352-1.053 1.415 0 2.099 1.135h.027V227h1.121zm-1.121-2.604v-1.032q0-.834-.567-1.429a1.85 1.85 0 0 0-1.402-.595q-1.038 0-1.627.759-.588.752-.588 2.112 0 1.17.561 1.873.567.698 1.497.698.943 0 1.531-.67.595-.67.595-1.716m9.201 3.165h-1.121v-3.992q0-2.229-1.627-2.229a1.77 1.77 0 0 0-1.394.636q-.547.629-.547 1.593V234h-1.121v-7h1.121v1.162h.027q.793-1.326 2.297-1.326 1.149 0 1.757.745.608.738.608 2.14zm9.208-.068q-.396.218-1.046.218-1.839 0-1.839-2.05v-4.143h-1.203V227h1.203v-1.709l1.122-.362V227h1.763v.957h-1.763v3.944q0 .705.239 1.005.239.301.793.301.423 0 .731-.232zM170.06 227l-3.22 8.121q-.861 2.174-2.42 2.174-.438 0-.732-.089v-1.005q.363.123.664.123.847 0 1.271-1.012l.561-1.326-2.735-6.986h1.244l1.894 5.387q.035.102.143.533h.041q.035-.164.137-.52l1.989-5.4zm2.358 5.988h-.027v4.232h-1.121V227h1.121v1.23h.027q.827-1.394 2.42-1.394 1.353 0 2.112.943.759.937.759 2.516 0 1.757-.855 2.816-.854 1.053-2.337 1.053-1.36 0-2.099-1.176m-.027-2.823v.978q0 .868.56 1.476.567.602 1.436.602 1.019 0 1.592-.78.582-.778.582-2.167 0-1.169-.54-1.832-.541-.663-1.463-.663-.978 0-1.573.684-.594.676-.594 1.702m12.735.615h-4.942q.027 1.17.628 1.805.603.636 1.655.636 1.182 0 2.174-.78v1.053q-.924.67-2.441.67-1.483 0-2.331-.95-.848-.957-.848-2.687 0-1.633.923-2.659.93-1.032 2.304-1.032t2.126.889.752 2.467zm-1.148-.95q-.007-.97-.472-1.511-.458-.54-1.278-.54-.793 0-1.347.568-.553.567-.684 1.483zM93.285 274v-9.803h2.79q1.271 0 2.016.622.745.623.745 1.62 0 .834-.451 1.45-.452.615-1.244.875v.027q.991.116 1.586.752.594.629.594 1.641 0 1.257-.902 2.037-.903.779-2.276.779zm1.149-8.764v3.165h1.175q.945 0 1.484-.451.54-.458.54-1.285 0-1.428-1.88-1.429zm0 4.198v3.527h1.558q1.012 0 1.566-.479.56-.478.56-1.312 0-1.736-2.365-1.736zM106.82 274h-1.121v-1.107h-.027q-.697 1.27-2.16 1.271-2.502 0-2.502-2.98V267h1.114v4.006q0 2.214 1.695 2.215a1.71 1.71 0 0 0 1.347-.602q.533-.608.533-1.586V267h1.121zm8.244 0h-1.121v-1.189h-.027q-.78 1.353-2.406 1.353-1.32 0-2.113-.936-.786-.944-.786-2.564 0-1.736.875-2.782.876-1.046 2.331-1.046 1.443 0 2.099 1.135h.027v-4.334h1.121zm-1.121-3.165v-1.032q0-.848-.56-1.436-.561-.588-1.422-.588-1.026 0-1.613.752-.588.752-.588 2.078 0 1.21.56 1.914.568.698 1.518.698.936 0 1.517-.677.588-.677.588-1.709m9.366 2.604q0 3.856-3.692 3.856-1.299 0-2.269-.492v-1.121q1.182.656 2.256.656 2.584 0 2.584-2.748v-.766h-.028q-.8 1.34-2.406 1.34-1.306 0-2.106-.93-.793-.936-.793-2.508 0-1.785.855-2.837.861-1.053 2.352-1.053 1.414 0 2.098 1.135h.028V267h1.121zm-1.121-2.604v-1.032a2 2 0 0 0-.568-1.429 1.85 1.85 0 0 0-1.401-.595q-1.04 0-1.627.759-.588.751-.588 2.112 0 1.17.56 1.873.568.698 1.498.698.942 0 1.531-.67.594-.67.595-1.716m9.016-.055h-4.942q.027 1.17.629 1.805.601.636 1.654.636 1.182 0 2.174-.78v1.053q-.923.67-2.441.67-1.484 0-2.331-.95-.847-.957-.847-2.687 0-1.633.922-2.659.93-1.032 2.304-1.032t2.126.889.752 2.467zm-1.148-.95q-.007-.97-.472-1.511-.457-.54-1.278-.54-.793 0-1.347.568-.554.567-.684 1.483zm6.097 4.102q-.396.218-1.046.218-1.838 0-1.838-2.05v-4.143h-1.204V267h1.204v-1.709l1.121-.362V267h1.763v.957h-1.763v3.944q0 .705.239 1.005.239.301.793.301.423 0 .731-.232z"/><path stroke="#e0e0e0" d="M80 296.5h220"/><path fill="#424242" d="M99.94 326h-1.53l-.756-2.139H94.35L93.623 326H92.1l3.146-8.402h1.57zm-2.655-3.275-1.166-3.352a4 4 0 0 1-.111-.527h-.024a3.5 3.5 0 0 1-.117.527l-1.154 3.352zm5.027 3.275h-1.365v-8.883h1.365zm3.141 0h-1.365v-8.883h1.365zm8.473-7.775a1.23 1.23 0 0 0-.627-.159q-.99 0-.99 1.12V320h1.394v1.066h-1.389V326h-1.359v-4.934h-1.025V320h1.025v-.973q0-.949.621-1.494.621-.55 1.553-.551.503 0 .797.112zm1.429.515a.83.83 0 0 1-.574-.217.72.72 0 0 1-.234-.55q0-.335.234-.557a.82.82 0 0 1 .574-.223q.346 0 .586.223a.73.73 0 0 1 .241.557q0 .316-.241.545a.83.83 0 0 1-.586.222m.674 7.26h-1.359v-6h1.359zm3.147 0h-1.365v-8.883h1.365zm4.939-.064q-.398.199-1.049.199-1.746 0-1.746-1.676v-3.393h-1.002V320h1.002v-1.389l1.36-.386V320h1.435v1.066h-1.435v3q0 .534.193.762.194.228.645.229.345 0 .597-.2zm6.182-2.567h-4.09q.024.833.51 1.283.492.452 1.347.452.962 0 1.764-.575v1.096q-.82.516-2.168.516-1.324 0-2.08-.815-.75-.82-.75-2.303 0-1.4.826-2.279.832-.885 2.063-.885 1.23 0 1.904.791.674.792.674 2.198zm-1.313-.961q-.006-.732-.345-1.137-.34-.41-.938-.41-.585 0-.996.428-.403.428-.498 1.119zm6.088-1.113q-.246-.193-.709-.193-.603 0-1.008.544-.404.546-.404 1.483V326h-1.359v-6h1.359v1.236h.024q.199-.633.609-.984.416-.357.926-.357.369 0 .562.111zm.668 4.517v-1.259q.762.58 1.682.58 1.23 0 1.23-.727a.56.56 0 0 0-.105-.345 1 1 0 0 0-.287-.258 2 2 0 0 0-.422-.199q-.24-.088-.539-.2a6 6 0 0 1-.668-.31 2.2 2.2 0 0 1-.492-.369 1.5 1.5 0 0 1-.293-.475 1.7 1.7 0 0 1-.1-.615q0-.433.205-.762.205-.334.551-.557a2.5 2.5 0 0 1 .785-.339q.44-.118.908-.118.832 0 1.489.252v1.19a2.5 2.5 0 0 0-1.454-.434q-.257 0-.468.053a1.2 1.2 0 0 0-.352.146.7.7 0 0 0-.228.229.52.52 0 0 0-.082.287q0 .193.082.328.081.135.24.24.164.1.387.188.228.082.521.182.387.157.691.322.311.163.528.375.217.206.334.48.117.27.117.645 0 .456-.211.797a1.8 1.8 0 0 1-.562.562 2.6 2.6 0 0 1-.815.328 4 4 0 0 1-.967.112q-.984 0-1.705-.329"/><mask id="d" fill="#fff"><path d="M89 345a4 4 0 0 1 4-4h62a4 4 0 0 1 4 4v16a4 4 0 0 1-4 4H93a4 4 0 0 1-4-4z"/></mask><path fill="#d1d1d1" d="M93 341v1h62v-2H93zm66 4h-1v16h2v-16zm-4 20v-1H93v2h62zm-66-4h1v-16h-2v16zm4 4v-1a3 3 0 0 1-3-3h-2a5 5 0 0 0 5 5zm66-4h-1a3 3 0 0 1-3 3v2a5 5 0 0 0 5-5zm-4-20v1a3 3 0 0 1 3 3h2a5 5 0 0 0-5-5zm-62 0v-1a5 5 0 0 0-5 5h2a3 3 0 0 1 3-3z" mask="url(#d)"/><path fill="#242424" d="M102.555 357h-4.453v-8.402h4.265v.89h-3.281v2.795h3.035v.885h-3.035v2.941h3.469zm5.871-6-2.016 3.035 1.981 2.965h-1.12l-1.177-1.945a14 14 0 0 1-.264-.457h-.023l-.276.457L104.33 357h-1.107l2.045-2.941-1.957-3.059h1.119l1.16 2.051q.129.228.252.469h.023l1.5-2.52zm2.109 5.133h-.023v3.627h-.961V351h.961v1.055h.023q.71-1.196 2.074-1.196 1.16 0 1.811.809.65.803.65 2.156 0 1.506-.732 2.414-.732.903-2.004.903-1.166 0-1.799-1.008m-.023-2.42v.838q0 .744.48 1.265.486.516 1.231.516.873 0 1.365-.668.498-.668.498-1.857 0-1.002-.463-1.571-.463-.568-1.254-.568-.838 0-1.348.586-.509.58-.509 1.459M120.9 357h-.961v-.938h-.023q-.627 1.079-1.846 1.079-.896 0-1.406-.475-.504-.474-.504-1.26 0-1.681 1.981-1.957l1.798-.252q0-1.529-1.236-1.529-1.084 0-1.957.738v-.984q.885-.563 2.039-.563 2.115 0 2.115 2.239zm-.961-3.035-1.447.199q-.668.094-1.008.334-.339.234-.339.838a.93.93 0 0 0 .31.721q.316.275.838.275.715 0 1.178-.498.468-.504.468-1.272zm7.752 3.035h-.961v-3.422q0-1.91-1.394-1.91-.721 0-1.195.545-.47.538-.469 1.365V357h-.961v-6h.961v.996h.023q.68-1.137 1.969-1.137.984 0 1.506.639.521.633.521 1.834zm6.938 0h-.961v-1.02h-.023q-.669 1.161-2.063 1.161-1.13 0-1.811-.803-.673-.809-.673-2.197 0-1.489.75-2.385.75-.897 1.998-.897 1.236 0 1.799.973h.023v-3.715h.961zm-.961-2.713v-.885q0-.726-.48-1.23-.481-.504-1.219-.504-.879 0-1.383.644-.504.645-.504 1.782 0 1.037.48 1.64.487.598 1.301.598.803 0 1.301-.58.504-.58.504-1.465M144.162 357h-.961v-.938h-.023q-.627 1.079-1.846 1.079-.897 0-1.406-.475-.504-.474-.504-1.26 0-1.681 1.98-1.957l1.799-.252q0-1.529-1.236-1.529-1.084 0-1.957.738v-.984q.885-.563 2.039-.563 2.115 0 2.115 2.239zm-.961-3.035-1.447.199q-.667.094-1.008.334-.34.234-.34.838a.93.93 0 0 0 .311.721q.316.275.838.275.715 0 1.177-.498.47-.504.469-1.272zm3.733 3.035h-.961v-8.883h.961zm2.906 0h-.961v-8.883h.961z"/><mask id="e" fill="#fff"><path d="M163 345a4 4 0 0 1 4-4h69a4 4 0 0 1 4 4v16a4 4 0 0 1-4 4h-69a4 4 0 0 1-4-4z"/></mask><path fill="#d1d1d1" d="M167 341v1h69v-2h-69zm73 4h-1v16h2v-16zm-4 20v-1h-69v2h69zm-73-4h1v-16h-2v16zm4 4v-1a3 3 0 0 1-3-3h-2a5 5 0 0 0 5 5zm73-4h-1a3 3 0 0 1-3 3v2a5 5 0 0 0 5-5zm-4-20v1a3 3 0 0 1 3 3h2a5 5 0 0 0-5-5zm-69 0v-1a5 5 0 0 0-5 5h2a3 3 0 0 1 3-3z" mask="url(#e)"/><path fill="#242424" d="M177.82 356.648q-.931.493-2.32.493-1.792 0-2.871-1.155-1.078-1.154-1.078-3.029 0-2.016 1.213-3.258t3.076-1.242q1.196 0 1.98.346v1.049a4 4 0 0 0-1.992-.504q-1.448 0-2.349.966-.897.967-.897 2.584 0 1.535.838 2.45.844.908 2.209.908 1.266 0 2.191-.563zm4.09.493q-1.33 0-2.127-.838-.79-.844-.791-2.233 0-1.512.826-2.361t2.233-.85q1.341 0 2.092.827.755.825.755 2.291 0 1.435-.814 2.302-.809.862-2.174.862m.07-5.473q-.925 0-1.464.633-.54.627-.539 1.734 0 1.067.544 1.682.546.615 1.459.615.933 0 1.43-.603.504-.604.504-1.717 0-1.125-.504-1.735-.497-.609-1.43-.609m5.415 5.332h-.961v-8.883h.961zm2.906 0h-.961v-8.883h.961zm6.24 0h-.961v-.938h-.023q-.628 1.079-1.846 1.079-.897 0-1.406-.475-.504-.474-.504-1.26 0-1.681 1.98-1.957l1.799-.252q0-1.529-1.236-1.529-1.084 0-1.957.738v-.984q.885-.563 2.039-.563 2.115 0 2.115 2.239zm-.961-3.035-1.447.199q-.667.094-1.008.334-.34.234-.34.838a.93.93 0 0 0 .311.721q.316.275.838.275.715 0 1.177-.498.47-.504.469-1.272zm3.756 2.168h-.024v3.627h-.96V351h.96v1.055h.024q.71-1.196 2.074-1.196 1.16 0 1.811.809.65.803.65 2.156 0 1.506-.732 2.414-.733.903-2.004.903-1.167 0-1.799-1.008m-.024-2.42v.838q0 .744.481 1.265.486.516 1.23.516.873 0 1.366-.668.498-.668.498-1.857 0-1.002-.463-1.571-.463-.568-1.254-.568-.838 0-1.348.586-.51.58-.51 1.459m5.731 3.07v-1.031q.785.58 1.728.58 1.266 0 1.266-.844a.7.7 0 0 0-.111-.404 1 1 0 0 0-.293-.299 2 2 0 0 0-.434-.228 15 15 0 0 0-.533-.217 8 8 0 0 1-.703-.317 2.3 2.3 0 0 1-.504-.363 1.5 1.5 0 0 1-.305-.463 1.7 1.7 0 0 1-.099-.603q0-.423.193-.744.193-.329.516-.545.323-.223.732-.334.416-.112.856-.112.779 0 1.394.27v.973q-.662-.434-1.523-.434-.27 0-.487.064a1.2 1.2 0 0 0-.375.17.85.85 0 0 0-.24.27.7.7 0 0 0-.082.34.84.84 0 0 0 .082.392q.088.159.252.282t.398.222q.235.1.534.217.398.153.715.316.315.159.539.364.222.2.339.463.123.262.123.627 0 .444-.199.773-.193.328-.521.545a2.4 2.4 0 0 1-.756.322q-.428.105-.897.106-.925 0-1.605-.358m10.283-2.543h-4.236q.023 1.002.539 1.547t1.418.545q1.014 0 1.863-.668v.902q-.79.575-2.092.575-1.27 0-1.998-.815-.726-.82-.726-2.303 0-1.4.791-2.279.797-.885 1.974-.885 1.179 0 1.823.762t.644 2.115zm-.984-.814q-.006-.833-.404-1.295-.393-.463-1.096-.463-.68 0-1.154.486-.475.487-.586 1.272zM224.373 357h-.961v-.938h-.023q-.627 1.079-1.846 1.079-.897 0-1.406-.475-.504-.474-.504-1.26 0-1.681 1.98-1.957l1.799-.252q0-1.529-1.236-1.529-1.084 0-1.957.738v-.984q.885-.563 2.039-.563 2.115 0 2.115 2.239zm-.961-3.035-1.447.199q-.667.094-1.008.334-.34.234-.34.838a.93.93 0 0 0 .311.721q.316.275.838.275.715 0 1.177-.498.47-.504.469-1.272zm3.733 3.035h-.961v-8.883h.961zm2.906 0h-.961v-8.883h.961z"/><path fill="#616161" d="M92.146 383.646a.5.5 0 0 1 .708 0L96 386.793l3.146-3.147a.5.5 0 0 1 .708.708l-3.5 3.5a.5.5 0 0 1-.708 0l-3.5-3.5a.5.5 0 0 1 0-.708"/><path fill="#424242" d="M118.873 391h-1.271l-1.04-2.748h-4.156l-.977 2.748h-1.279l3.76-9.803h1.19zm-2.686-3.78-1.539-4.177q-.075-.205-.15-.656h-.027a3.6 3.6 0 0 1-.158.656l-1.524 4.177zm7.232 3.712q-.396.218-1.046.218-1.839 0-1.839-2.05v-4.143h-1.203V384h1.203v-1.709l1.121-.362V384h1.764v.957h-1.764v3.944q0 .705.24 1.005.238.301.793.301.423 0 .731-.232zm4.744 0q-.396.218-1.046.218-1.839 0-1.839-2.05v-4.143h-1.203V384h1.203v-1.709l1.121-.362V384h1.764v.957h-1.764v3.944q0 .705.24 1.005.238.301.793.301.423 0 .731-.232zm5.148-5.797q-.294-.226-.848-.226-.719 0-1.203.677-.479.676-.479 1.846V391h-1.121v-7h1.121v1.442h.028q.239-.738.731-1.148a1.66 1.66 0 0 1 1.101-.417q.437 0 .67.096zm1.791-2.912a.713.713 0 0 1-.725-.725.7.7 0 0 1 .212-.519.7.7 0 0 1 .513-.212q.308 0 .519.212a.68.68 0 0 1 .219.519.69.69 0 0 1-.219.513.7.7 0 0 1-.519.212m.546 8.777h-1.121v-7h1.121zm3.418-1.012h-.027V391h-1.121v-10.363h1.121v4.593h.027q.828-1.394 2.42-1.394 1.347 0 2.106.943.765.937.765 2.516 0 1.757-.854 2.816-.855 1.053-2.338 1.053-1.388 0-2.099-1.176m-.027-2.823v.978q0 .868.561 1.476.567.602 1.435.602 1.018 0 1.593-.78.58-.778.581-2.167 0-1.169-.54-1.832t-1.463-.663q-.978 0-1.572.684-.595.676-.595 1.702m12.77 3.835h-1.121v-1.107h-.028q-.698 1.27-2.16 1.271-2.502 0-2.502-2.98V384h1.114v4.006q0 2.214 1.696 2.215a1.71 1.71 0 0 0 1.346-.602q.534-.608.534-1.586V384h1.121zm5.516-.068q-.396.218-1.046.218-1.839 0-1.839-2.05v-4.143h-1.203V384h1.203v-1.709l1.122-.362V384h1.763v.957h-1.763v3.944q0 .705.239 1.005.239.301.793.301.423 0 .731-.232zm7.123-3.152h-4.942q.027 1.17.629 1.805.601.636 1.654.636 1.182 0 2.174-.78v1.053q-.923.67-2.441.67-1.482 0-2.331-.95-.847-.957-.847-2.687 0-1.633.923-2.659.929-1.032 2.303-1.032t2.126.889.752 2.467zm-1.148-.95q-.007-.97-.472-1.511-.458-.54-1.278-.54-.793 0-1.347.568-.554.567-.683 1.483zm2.427 3.917v-1.203q.915.677 2.016.677 1.477 0 1.477-.985a.82.82 0 0 0-.13-.471 1.2 1.2 0 0 0-.342-.349 2.4 2.4 0 0 0-.506-.267 20 20 0 0 0-.622-.253 9 9 0 0 1-.82-.369 2.7 2.7 0 0 1-.588-.423 1.7 1.7 0 0 1-.356-.541 2 2 0 0 1-.116-.704q0-.492.226-.868.226-.382.601-.636.377-.26.855-.389.485-.13.998-.13.909 0 1.627.314v1.135q-.773-.506-1.777-.506-.315 0-.568.075a1.4 1.4 0 0 0-.437.199 1 1 0 0 0-.281.314.84.84 0 0 0-.095.397q0 .273.095.458.103.184.294.328.192.144.465.26t.622.252q.465.178.834.37.37.185.629.423.26.232.397.541.143.307.143.731 0 .52-.232.902a1.9 1.9 0 0 1-.609.636 2.8 2.8 0 0 1-.881.376 4.4 4.4 0 0 1-1.046.123q-1.08 0-1.873-.417M111.285 427v-9.803h2.707q5.182 0 5.182 4.779 0 2.269-1.443 3.65-1.435 1.374-3.848 1.374zm1.149-8.764v7.725h1.462q1.929 0 3.001-1.032 1.074-1.032 1.074-2.926 0-3.767-4.006-3.767zM125.962 427h-1.121v-1.094h-.028q-.73 1.258-2.153 1.258-1.046 0-1.64-.554-.588-.554-.588-1.469 0-1.962 2.31-2.284l2.099-.294q0-1.784-1.443-1.784-1.264 0-2.283.862v-1.149q1.032-.656 2.379-.656 2.468 0 2.468 2.611zm-1.121-3.541-1.689.232q-.779.11-1.175.39-.397.273-.397.978 0 .512.362.84.369.322.978.322.834 0 1.374-.581.547-.588.547-1.484zm3.807-5.236a.71.71 0 0 1-.724-.725q0-.315.212-.519a.7.7 0 0 1 .512-.212q.309 0 .52.212a.68.68 0 0 1 .219.519.69.69 0 0 1-.219.513.7.7 0 0 1-.52.212m.547 8.777h-1.121v-7h1.121zm3.391 0h-1.121v-10.363h1.121zm7.841-7-3.22 8.121q-.861 2.174-2.42 2.174-.437 0-.731-.089v-1.005q.361.123.663.123.848 0 1.271-1.012l.561-1.326-2.735-6.986h1.245l1.893 5.387q.035.102.144.533h.041q.034-.164.136-.52l1.99-5.4zm6.2 5.988h-.027V427h-1.121v-10.363h1.121v4.593h.027q.827-1.394 2.42-1.394 1.347 0 2.105.943.766.937.766 2.516 0 1.757-.855 2.816-.853 1.053-2.337 1.053-1.388 0-2.099-1.176m-.027-2.823v.978q0 .868.56 1.476.567.602 1.436.602 1.019 0 1.592-.78.582-.778.582-2.167 0-1.169-.541-1.832-.54-.663-1.462-.663-.978 0-1.573.684-.594.676-.594 1.702M159.369 427h-1.121v-1.107h-.027q-.697 1.27-2.16 1.271-2.502 0-2.502-2.98V420h1.114v4.006q0 2.214 1.695 2.215a1.71 1.71 0 0 0 1.347-.602q.533-.608.533-1.586V420h1.121zm8.244 0h-1.121v-1.189h-.027q-.78 1.353-2.406 1.353-1.32 0-2.113-.936-.786-.944-.786-2.564 0-1.736.875-2.782t2.331-1.046q1.442 0 2.099 1.135h.027v-4.334h1.121zm-1.121-3.165v-1.032q0-.848-.56-1.436-.561-.588-1.422-.588-1.026 0-1.614.752-.587.753-.587 2.078 0 1.21.56 1.914.567.698 1.518.698.936 0 1.517-.677.588-.677.588-1.709m9.365 2.604q0 3.856-3.691 3.856-1.298 0-2.27-.492v-1.121q1.184.656 2.256.656 2.584 0 2.584-2.748v-.766h-.027q-.8 1.34-2.406 1.34-1.307 0-2.106-.93-.792-.936-.793-2.508 0-1.785.855-2.837.861-1.053 2.351-1.053 1.416 0 2.099 1.135h.027V420h1.121zm-1.121-2.604v-1.032q0-.834-.567-1.429a1.85 1.85 0 0 0-1.401-.595q-1.04 0-1.627.759-.588.751-.588 2.112 0 1.17.56 1.873.568.698 1.497.698.944 0 1.532-.67.594-.67.594-1.716m9.017-.055h-4.942q.027 1.17.628 1.805.602.636 1.655.636 1.182 0 2.174-.78v1.053q-.924.67-2.441.67-1.483 0-2.331-.95-.848-.957-.848-2.687 0-1.633.923-2.659.93-1.032 2.304-1.032t2.126.889.752 2.467zm-1.149-.95q-.006-.97-.471-1.511-.459-.54-1.279-.54-.792 0-1.346.568-.554.567-.684 1.483zm6.098 4.102q-.396.218-1.046.218-1.839 0-1.839-2.05v-4.143h-1.203V420h1.203v-1.709l1.121-.362V420h1.764v.957h-1.764v3.944q0 .705.24 1.005.239.301.793.301.423 0 .731-.232zM117.957 458.59q-1.087.574-2.707.574-2.092 0-3.35-1.347-1.257-1.346-1.257-3.534 0-2.351 1.415-3.801 1.415-1.449 3.588-1.449 1.395 0 2.311.404v1.223a4.7 4.7 0 0 0-2.324-.588q-1.69 0-2.741 1.128-1.047 1.128-1.046 3.015 0 1.79.977 2.857.985 1.06 2.577 1.06 1.477 0 2.557-.656zm6.856.41h-1.121v-1.094h-.027q-.732 1.258-2.153 1.258-1.046 0-1.641-.554-.588-.554-.588-1.469 0-1.962 2.311-2.284l2.098-.294q0-1.784-1.442-1.784-1.264 0-2.283.862v-1.149q1.032-.656 2.379-.656 2.467 0 2.467 2.611zm-1.121-3.541-1.688.232q-.78.11-1.176.39-.396.273-.396.978 0 .512.362.84.37.322.977.322.834 0 1.375-.581.546-.588.546-1.484zM136.865 459h-1.121v-4.02q0-1.161-.362-1.681-.356-.52-1.203-.52-.719 0-1.224.657-.5.656-.499 1.572V459h-1.121v-4.156q0-2.065-1.593-2.065-.738 0-1.217.622-.478.616-.478 1.607V459h-1.121v-7h1.121v1.107h.027q.746-1.27 2.174-1.271.719 0 1.251.403.533.397.731 1.046.78-1.449 2.325-1.449 2.31 0 2.31 2.851zm3.268-1.012h-.028v4.232h-1.121V452h1.121v1.23h.028q.827-1.394 2.42-1.394 1.353 0 2.112.943.759.937.759 2.516 0 1.757-.855 2.816-.854 1.053-2.338 1.053-1.36 0-2.098-1.176m-.028-2.823v.978q0 .868.561 1.476.567.602 1.436.602 1.019 0 1.592-.78.582-.778.581-2.167 0-1.169-.54-1.832t-1.463-.663q-.977 0-1.572.684-.594.676-.595 1.702M152.226 459h-1.122v-1.094h-.027q-.73 1.258-2.153 1.258-1.045 0-1.641-.554-.588-.554-.588-1.469 0-1.962 2.311-2.284l2.098-.294q0-1.784-1.442-1.784-1.264 0-2.283.862v-1.149q1.032-.656 2.379-.656 2.468 0 2.468 2.611zm-1.122-3.541-1.688.232q-.78.11-1.176.39-.396.273-.396.978 0 .512.362.84.369.322.978.322.834 0 1.374-.581.546-.588.546-1.484zm3.808-5.236a.72.72 0 0 1-.513-.205.7.7 0 0 1-.211-.52q0-.315.211-.519a.7.7 0 0 1 .513-.212q.307 0 .52.212a.68.68 0 0 1 .218.519.7.7 0 0 1-.218.513.7.7 0 0 1-.52.212m.547 8.777h-1.121v-7h1.121zm8.244-.561q0 3.856-3.691 3.856-1.3 0-2.27-.492v-1.121q1.184.656 2.256.656 2.584 0 2.584-2.748v-.766h-.027q-.8 1.34-2.407 1.34-1.305 0-2.105-.93-.793-.936-.793-2.508 0-1.785.854-2.837.862-1.053 2.352-1.053 1.415 0 2.099 1.135h.027V452h1.121zm-1.121-2.604v-1.032q0-.834-.567-1.429a1.85 1.85 0 0 0-1.402-.595q-1.038 0-1.627.759-.588.751-.588 2.112 0 1.17.561 1.873.567.698 1.497.698.943 0 1.531-.67.595-.67.595-1.716m9.201 3.165h-1.121v-3.992q0-2.229-1.627-2.229a1.77 1.77 0 0 0-1.394.636q-.547.628-.547 1.593V459h-1.121v-7h1.121v1.162h.027q.793-1.326 2.297-1.326 1.149 0 1.757.745.608.738.608 2.14zm7.26 0h-1.148v-9.803h1.148zm2.584 0v-9.803h2.707q5.182 0 5.182 4.779 0 2.269-1.443 3.65-1.436 1.374-3.848 1.374zm1.148-8.764v7.725h1.463q1.928 0 3.001-1.032t1.073-2.926q0-3.767-4.005-3.767z"/><path fill="#ebebeb" d="M84 473a4 4 0 0 1 4-4h208a4 4 0 0 1 4 4v24a4 4 0 0 1-4 4H88a4 4 0 0 1-4-4z"/><path fill="#242424" d="M117.957 490.59q-1.087.574-2.707.574-2.092 0-3.35-1.347-1.257-1.346-1.257-3.534 0-2.351 1.415-3.801 1.415-1.449 3.588-1.449 1.395 0 2.311.404v1.223a4.7 4.7 0 0 0-2.324-.588q-1.69 0-2.741 1.128-1.047 1.128-1.046 3.015 0 1.79.977 2.857.985 1.06 2.577 1.06 1.477 0 2.557-.656zm6.856.41h-1.121v-1.094h-.027q-.732 1.258-2.153 1.258-1.046 0-1.641-.554-.588-.554-.588-1.469 0-1.962 2.311-2.284l2.098-.294q0-1.784-1.442-1.784-1.264 0-2.283.862v-1.149q1.032-.656 2.379-.656 2.467 0 2.467 2.611zm-1.121-3.541-1.688.232q-.78.11-1.176.39-.396.273-.396.978 0 .512.362.84.37.322.977.322.834 0 1.375-.581.546-.588.546-1.484zM136.865 491h-1.121v-4.02q0-1.161-.362-1.681-.356-.52-1.203-.52-.719 0-1.224.657-.5.656-.499 1.572V491h-1.121v-4.156q0-2.065-1.593-2.065-.738 0-1.217.622-.478.616-.478 1.607V491h-1.121v-7h1.121v1.107h.027q.746-1.27 2.174-1.271.719 0 1.251.403.533.397.731 1.046.78-1.449 2.325-1.449 2.31 0 2.31 2.851zm3.268-1.012h-.028v4.232h-1.121V484h1.121v1.23h.028q.827-1.394 2.42-1.394 1.353 0 2.112.943.759.937.759 2.516 0 1.757-.855 2.816-.854 1.053-2.338 1.053-1.36 0-2.098-1.176m-.028-2.823v.978q0 .868.561 1.476.567.602 1.436.602 1.019 0 1.592-.78.582-.778.581-2.167 0-1.169-.54-1.832t-1.463-.663q-.977 0-1.572.684-.594.676-.595 1.702M152.226 491h-1.122v-1.094h-.027q-.73 1.258-2.153 1.258-1.045 0-1.641-.554-.588-.554-.588-1.469 0-1.962 2.311-2.284l2.098-.294q0-1.784-1.442-1.784-1.264 0-2.283.862v-1.149q1.032-.656 2.379-.656 2.468 0 2.468 2.611zm-1.122-3.541-1.688.232q-.78.11-1.176.39-.396.273-.396.978 0 .512.362.84.369.322.978.322.834 0 1.374-.581.546-.588.546-1.484zm3.808-5.236a.72.72 0 0 1-.513-.205.7.7 0 0 1-.211-.52q0-.315.211-.519a.7.7 0 0 1 .513-.212q.307 0 .52.212a.68.68 0 0 1 .218.519.7.7 0 0 1-.218.513.7.7 0 0 1-.52.212m.547 8.777h-1.121v-7h1.121zm8.244-.561q0 3.856-3.691 3.856-1.3 0-2.27-.492v-1.121q1.184.656 2.256.656 2.584 0 2.584-2.748v-.766h-.027q-.8 1.34-2.407 1.34-1.305 0-2.105-.93-.793-.936-.793-2.508 0-1.785.854-2.837.862-1.053 2.352-1.053 1.415 0 2.099 1.135h.027V484h1.121zm-1.121-2.604v-1.032q0-.834-.567-1.429a1.85 1.85 0 0 0-1.402-.595q-1.038 0-1.627.759-.588.751-.588 2.112 0 1.17.561 1.873.567.698 1.497.698.943 0 1.531-.67.595-.67.595-1.716m9.201 3.165h-1.121v-3.992q0-2.229-1.627-2.229a1.77 1.77 0 0 0-1.394.636q-.547.628-.547 1.593V491h-1.121v-7h1.121v1.162h.027q.793-1.326 2.297-1.326 1.149 0 1.757.745.608.738.608 2.14zm11.772 0h-1.121v-3.992q0-2.229-1.627-2.229a1.77 1.77 0 0 0-1.395.636q-.547.628-.547 1.593V491h-1.121v-7h1.121v1.162h.028q.792-1.326 2.296-1.326 1.15 0 1.757.745.609.738.609 2.14zm7.13 0h-1.122v-1.094h-.027q-.73 1.258-2.153 1.258-1.046 0-1.641-.554-.588-.554-.588-1.469 0-1.962 2.311-2.284l2.098-.294q0-1.784-1.442-1.784-1.265 0-2.283.862v-1.149q1.032-.656 2.379-.656 2.468 0 2.468 2.611zm-1.122-3.541-1.688.232q-.78.11-1.176.39-.396.273-.396.978 0 .512.362.84.369.322.978.322.834 0 1.374-.581.546-.588.546-1.484zM202.736 491h-1.121v-4.02q0-1.161-.362-1.681-.356-.52-1.203-.52-.719 0-1.224.657-.5.656-.499 1.572V491h-1.121v-4.156q0-2.065-1.593-2.065-.738 0-1.217.622-.478.616-.478 1.607V491h-1.121v-7h1.121v1.107h.027q.746-1.27 2.174-1.271.719 0 1.251.403a2 2 0 0 1 .732 1.046q.779-1.449 2.324-1.449 2.31 0 2.31 2.851zm7.745-3.22h-4.942q.027 1.17.629 1.805.601.636 1.654.636 1.183 0 2.174-.78v1.053q-.923.67-2.44.67-1.483 0-2.331-.95-.848-.957-.848-2.687 0-1.633.923-2.659.93-1.032 2.304-1.032t2.125.889q.753.889.752 2.467zm-1.148-.95q-.007-.97-.472-1.511-.458-.54-1.278-.54-.793 0-1.347.568-.554.567-.683 1.483z"/><path fill="#424242" d="M110.827 522.604v-1.354q.233.206.554.369.328.165.683.28.363.11.725.171.363.062.67.062 1.06 0 1.579-.39.526-.396.526-1.135 0-.396-.177-.69a1.9 1.9 0 0 0-.479-.533 4.4 4.4 0 0 0-.731-.465q-.417-.226-.903-.472-.511-.26-.957-.526a4.2 4.2 0 0 1-.772-.588 2.5 2.5 0 0 1-.52-.725 2.3 2.3 0 0 1-.184-.957q0-.67.294-1.162.294-.499.772-.82a3.5 3.5 0 0 1 1.087-.479 5 5 0 0 1 1.251-.157q1.449 0 2.112.349v1.292q-.867-.602-2.228-.602-.376 0-.752.082-.376.075-.67.253a1.5 1.5 0 0 0-.478.458 1.2 1.2 0 0 0-.185.684q0 .375.137.649.142.274.417.499.273.226.663.438.396.212.909.465.527.26.998.546.471.288.827.636t.561.773q.212.423.212.97 0 .725-.288 1.231a2.3 2.3 0 0 1-.765.813q-.478.314-1.108.452a6 6 0 0 1-1.326.143q-.232 0-.574-.041a7 7 0 0 1-.697-.109 6 6 0 0 1-.677-.171 2.2 2.2 0 0 1-.506-.239m10.541.328q-.396.218-1.046.218-1.839 0-1.839-2.05v-4.143h-1.203V516h1.203v-1.709l1.121-.362V516h1.764v.957h-1.764v3.944q0 .705.24 1.005.239.301.793.301.423 0 .731-.232zm6.508.068h-1.121v-1.094h-.027q-.732 1.258-2.154 1.258-1.046 0-1.64-.554-.588-.554-.588-1.469 0-1.962 2.31-2.284l2.099-.294q0-1.784-1.443-1.784-1.264 0-2.283.862v-1.149q1.032-.656 2.379-.656 2.468 0 2.468 2.611zm-1.121-3.541-1.689.232q-.779.11-1.175.39-.397.273-.397.978 0 .512.362.84.37.322.978.322.834 0 1.374-.581.547-.588.547-1.484zm6.48 3.473q-.396.218-1.046.218-1.838 0-1.838-2.05v-4.143h-1.204V516h1.204v-1.709l1.121-.362V516h1.763v.957h-1.763v3.944q0 .705.239 1.005.239.301.793.301.423 0 .731-.232zm7.158.068h-1.122v-1.107h-.027q-.698 1.27-2.16 1.271-2.502 0-2.502-2.98V516h1.114v4.006q0 2.215 1.696 2.215a1.71 1.71 0 0 0 1.346-.602q.534-.608.533-1.586V516h1.122zm1.845-.253v-1.203a3.32 3.32 0 0 0 2.017.677q1.476 0 1.476-.985a.8.8 0 0 0-.129-.471 1.2 1.2 0 0 0-.342-.349q-.212-.15-.506-.267a21 21 0 0 0-.622-.253 9 9 0 0 1-.82-.369 2.7 2.7 0 0 1-.588-.423 1.7 1.7 0 0 1-.356-.541 2 2 0 0 1-.116-.704q0-.492.226-.868.225-.382.601-.636.377-.26.855-.389.485-.13.998-.13.909 0 1.627.314v1.135q-.773-.506-1.778-.506a2 2 0 0 0-.567.075 1.4 1.4 0 0 0-.438.199 1 1 0 0 0-.28.314.8.8 0 0 0-.096.397q0 .273.096.458.102.184.294.328t.465.26.622.252q.465.178.834.37.37.185.629.423.26.232.396.541.144.307.144.731 0 .52-.233.902-.225.383-.608.636a2.8 2.8 0 0 1-.882.376 4.4 4.4 0 0 1-1.046.123q-1.08 0-1.873-.417M111.285 555v-9.803h2.789q1.272 0 2.017.622.745.623.745 1.62 0 .835-.451 1.45-.452.614-1.244.875v.027q.99.116 1.586.752.594.628.594 1.641 0 1.257-.902 2.037-.902.779-2.276.779zm1.149-8.764v3.165h1.175q.944 0 1.484-.451.54-.458.54-1.285 0-1.428-1.88-1.429zm0 4.198v3.527h1.558q1.012 0 1.566-.479.56-.478.56-1.312 0-1.736-2.365-1.736zm7.3-4.211a.71.71 0 0 1-.724-.725q0-.315.212-.519a.7.7 0 0 1 .512-.212q.308 0 .52.212a.68.68 0 0 1 .219.519.69.69 0 0 1-.219.513.7.7 0 0 1-.52.212m.547 8.777h-1.121v-7h1.121zm8.244 0h-1.121v-1.189h-.027q-.78 1.353-2.406 1.353-1.32 0-2.113-.936-.786-.944-.786-2.564 0-1.736.875-2.782.876-1.046 2.331-1.046 1.442 0 2.099 1.135h.027v-4.334h1.121zm-1.121-3.165v-1.032q0-.848-.56-1.436-.561-.588-1.422-.588-1.026 0-1.613.752-.588.752-.588 2.078 0 1.21.56 1.914.568.698 1.518.698.936 0 1.517-.677.588-.677.588-1.709m6.809 2.912v-1.203a3.32 3.32 0 0 0 2.016.677q1.477 0 1.477-.985a.8.8 0 0 0-.13-.471 1.2 1.2 0 0 0-.342-.349q-.212-.15-.505-.267a20 20 0 0 0-.623-.253 9 9 0 0 1-.82-.369 2.7 2.7 0 0 1-.588-.423 1.7 1.7 0 0 1-.355-.541 1.9 1.9 0 0 1-.116-.704q0-.492.225-.868.226-.382.602-.636.375-.26.854-.389.486-.13.998-.13.91 0 1.627.314v1.135q-.772-.506-1.777-.506-.315 0-.568.075a1.4 1.4 0 0 0-.437.199.95.95 0 0 0-.28.314.8.8 0 0 0-.096.397q0 .273.096.458.102.184.294.328.19.144.464.26.274.115.623.252.463.178.834.37.369.185.628.423.26.232.397.541.143.307.143.731 0 .52-.232.902-.225.383-.608.636a2.8 2.8 0 0 1-.882.376 4.4 4.4 0 0 1-1.046.123q-1.08 0-1.873-.417m9.618.185q-.396.218-1.046.218-1.839 0-1.839-2.05v-4.143h-1.203V548h1.203v-1.709l1.121-.362V548h1.764v.957h-1.764v3.944q0 .705.24 1.005.238.301.793.301.423 0 .731-.232zm5.148-5.797q-.294-.226-.848-.226-.719 0-1.203.677-.479.676-.479 1.846V555h-1.121v-7h1.121v1.442h.028q.239-.738.731-1.148a1.66 1.66 0 0 1 1.101-.417q.437 0 .67.096zm6.227 5.865h-1.121v-1.094h-.027q-.732 1.258-2.154 1.258-1.046 0-1.64-.554-.588-.554-.588-1.469 0-1.962 2.31-2.284l2.099-.294q0-1.784-1.442-1.784-1.266 0-2.284.862v-1.149q1.033-.656 2.379-.656 2.468 0 2.468 2.611zm-1.121-3.541-1.689.232q-.779.11-1.175.39-.397.273-.397.978 0 .512.363.84.369.322.977.322.834 0 1.374-.581.547-.588.547-1.484zm6.48 3.473q-.397.218-1.045.218-1.839 0-1.839-2.05v-4.143h-1.203V548h1.203v-1.709l1.121-.362V548h1.763v.957h-1.763v3.944q0 .705.239 1.005.24.301.793.301.424 0 .731-.232zm7.123-3.152h-4.942q.027 1.17.629 1.805.601.636 1.654.636 1.183 0 2.174-.78v1.053q-.923.67-2.44.67-1.484 0-2.331-.95-.848-.957-.848-2.687 0-1.633.923-2.659.93-1.032 2.304-1.032t2.126.889q.751.889.751 2.467zm-1.148-.95q-.007-.97-.472-1.511-.458-.54-1.278-.54-.793 0-1.347.568-.554.567-.683 1.483zm8.825 3.609q0 3.856-3.691 3.856-1.3 0-2.27-.492v-1.121q1.184.656 2.256.656 2.584 0 2.584-2.748v-.766h-.027q-.8 1.34-2.406 1.34-1.307 0-2.106-.93-.793-.936-.793-2.508 0-1.785.855-2.837.861-1.053 2.351-1.053 1.416 0 2.099 1.135h.027V548h1.121zm-1.121-2.604v-1.032q0-.834-.567-1.429a1.85 1.85 0 0 0-1.402-.595q-1.038 0-1.627.759-.587.752-.587 2.112 0 1.17.56 1.873.567.698 1.497.698.943 0 1.531-.67.595-.67.595-1.716m8.962-3.835-3.22 8.121q-.861 2.174-2.42 2.174-.437 0-.731-.089v-1.005q.362.123.663.123.848 0 1.272-1.012l.56-1.326-2.734-6.986h1.244l1.893 5.387q.035.102.144.533h.041q.034-.164.137-.52l1.989-5.4zm10.862 7h-1.121v-3.992q0-2.229-1.627-2.229a1.77 1.77 0 0 0-1.394.636q-.547.629-.547 1.593V555h-1.121v-7h1.121v1.162h.027q.794-1.326 2.297-1.326 1.148 0 1.757.745.609.738.608 2.14zm7.13 0h-1.121v-1.094h-.027q-.732 1.258-2.154 1.258-1.046 0-1.64-.554-.588-.554-.588-1.469 0-1.962 2.311-2.284l2.098-.294q0-1.784-1.442-1.784-1.264 0-2.283.862v-1.149q1.032-.656 2.378-.656 2.468 0 2.468 2.611zm-1.121-3.541-1.688.232q-.78.11-1.176.39-.397.273-.397.978 0 .512.363.84.37.322.977.322.834 0 1.374-.581.547-.588.547-1.484zM213.25 555h-1.121v-4.02q0-1.162-.362-1.681-.355-.52-1.204-.52-.717 0-1.223.657-.5.655-.499 1.572V555h-1.121v-4.156q0-2.065-1.593-2.065-.738 0-1.217.622-.478.616-.478 1.607V555h-1.121v-7h1.121v1.107h.027q.745-1.27 2.174-1.271.717 0 1.251.403.533.397.731 1.046.78-1.449 2.324-1.449 2.311 0 2.311 2.851zm7.745-3.22h-4.942q.027 1.17.629 1.805.601.636 1.654.636 1.182 0 2.174-.78v1.053q-.923.67-2.441.67-1.483 0-2.331-.95-.847-.957-.847-2.687 0-1.633.922-2.659.93-1.032 2.304-1.032t2.126.889.752 2.467zm-1.148-.95q-.007-.97-.472-1.511-.457-.54-1.278-.54-.793 0-1.347.568-.554.567-.684 1.483zM111.285 587v-9.803h2.707q5.182 0 5.182 4.779 0 2.269-1.443 3.65-1.435 1.374-3.848 1.374zm1.149-8.764v7.725h1.462q1.929 0 3.001-1.032 1.074-1.032 1.074-2.926 0-3.767-4.006-3.767zm14.143 5.544h-4.942q.027 1.17.629 1.805.601.636 1.654.636 1.182 0 2.174-.78v1.053q-.923.67-2.441.67-1.484 0-2.331-.95-.847-.957-.847-2.687 0-1.633.923-2.659.929-1.032 2.303-1.032t2.126.889.752 2.467zm-1.148-.95q-.007-.97-.472-1.511-.457-.54-1.278-.54-.793 0-1.347.568-.553.567-.684 1.483zM129.4 587h-1.121v-10.363h1.121zm2.844-8.777a.72.72 0 0 1-.513-.205.7.7 0 0 1-.211-.52q0-.315.211-.519a.7.7 0 0 1 .513-.212q.307 0 .52.212a.68.68 0 0 1 .218.519.69.69 0 0 1-.218.513.7.7 0 0 1-.52.212m.547 8.777h-1.121v-7h1.121zm7.772-7-2.789 7h-1.1l-2.653-7h1.231l1.777 5.086q.198.56.246.977h.028q.068-.525.218-.95l1.86-5.113zm6.836 3.78h-4.942q.027 1.17.629 1.805.601.636 1.654.636 1.183 0 2.174-.78v1.053q-.923.67-2.44.67-1.483 0-2.331-.95-.849-.957-.848-2.687 0-1.633.923-2.659.93-1.032 2.303-1.032 1.375 0 2.126.889.752.889.752 2.467zm-1.148-.95q-.007-.97-.472-1.511-.457-.54-1.278-.54-.793 0-1.347.568-.554.567-.683 1.483zm6.501-1.695q-.294-.226-.848-.226-.717 0-1.203.677-.478.676-.478 1.846V587h-1.121v-7h1.121v1.442h.027q.24-.738.731-1.148a1.66 1.66 0 0 1 1.101-.417q.438 0 .67.096zM159.54 580l-3.22 8.121q-.861 2.174-2.42 2.174-.437 0-.731-.089v-1.005q.362.123.663.123.847 0 1.272-1.012l.56-1.326L152.93 580h1.244l1.893 5.387q.034.102.144.533h.041q.034-.164.137-.52l1.989-5.4zM117.957 618.59q-1.087.574-2.707.574-2.092 0-3.35-1.347-1.257-1.346-1.257-3.534 0-2.351 1.415-3.801 1.415-1.449 3.588-1.449 1.395 0 2.311.404v1.223a4.7 4.7 0 0 0-2.324-.588q-1.69 0-2.741 1.128-1.047 1.128-1.046 3.015 0 1.79.977 2.857.985 1.06 2.577 1.06 1.477 0 2.557-.656zm6.856.41h-1.121v-1.094h-.027q-.732 1.258-2.153 1.258-1.046 0-1.641-.554-.588-.554-.588-1.469 0-1.962 2.311-2.284l2.098-.294q0-1.784-1.442-1.784-1.264 0-2.283.862v-1.149q1.032-.656 2.379-.656 2.467 0 2.467 2.611zm-1.121-3.541-1.688.232q-.78.11-1.176.39-.396.273-.396.978 0 .512.362.84.37.322.977.322.834 0 1.375-.581.546-.588.546-1.484zM136.865 619h-1.121v-4.02q0-1.162-.362-1.681-.356-.52-1.203-.52-.719 0-1.224.657-.5.655-.499 1.572V619h-1.121v-4.156q0-2.065-1.593-2.065-.738 0-1.217.622-.478.616-.478 1.607V619h-1.121v-7h1.121v1.107h.027q.746-1.27 2.174-1.271.719 0 1.251.403.533.397.731 1.046.78-1.449 2.325-1.449 2.31 0 2.31 2.851zm3.268-1.012h-.028v4.232h-1.121V612h1.121v1.23h.028q.827-1.394 2.42-1.394 1.353 0 2.112.943.759.937.759 2.516 0 1.757-.855 2.816-.854 1.053-2.338 1.053-1.36 0-2.098-1.176m-.028-2.823v.978q0 .868.561 1.476.567.602 1.436.602 1.019 0 1.592-.78.582-.778.581-2.167 0-1.169-.54-1.832t-1.463-.663q-.977 0-1.572.684-.594.676-.595 1.702M152.226 619h-1.122v-1.094h-.027q-.73 1.258-2.153 1.258-1.045 0-1.641-.554-.588-.554-.588-1.469 0-1.962 2.311-2.284l2.098-.294q0-1.784-1.442-1.784-1.264 0-2.283.862v-1.149q1.032-.656 2.379-.656 2.468 0 2.468 2.611zm-1.122-3.541-1.688.232q-.78.11-1.176.39-.396.273-.396.978 0 .512.362.84.369.322.978.322.834 0 1.374-.581.546-.588.546-1.484zm3.808-5.236a.72.72 0 0 1-.513-.205.7.7 0 0 1-.211-.52q0-.315.211-.519a.7.7 0 0 1 .513-.212q.307 0 .52.212a.68.68 0 0 1 .218.519.7.7 0 0 1-.218.513.7.7 0 0 1-.52.212m.547 8.777h-1.121v-7h1.121zm8.244-.561q0 3.856-3.691 3.856-1.3 0-2.27-.492v-1.121q1.184.656 2.256.656 2.584 0 2.584-2.748v-.766h-.027q-.8 1.34-2.407 1.34-1.305 0-2.105-.93-.793-.936-.793-2.508 0-1.785.854-2.837.862-1.053 2.352-1.053 1.415 0 2.099 1.135h.027V612h1.121zm-1.121-2.604v-1.032q0-.834-.567-1.429a1.85 1.85 0 0 0-1.402-.595q-1.038 0-1.627.759-.588.752-.588 2.112 0 1.17.561 1.873.567.698 1.497.698.943 0 1.531-.67.595-.67.595-1.716m9.201 3.165h-1.121v-3.992q0-2.229-1.627-2.229a1.77 1.77 0 0 0-1.394.636q-.547.629-.547 1.593V619h-1.121v-7h1.121v1.162h.027q.793-1.326 2.297-1.326 1.149 0 1.757.745.608.738.608 2.14zm9.208-.068q-.396.218-1.046.218-1.839 0-1.839-2.05v-4.143h-1.203V612h1.203v-1.709l1.122-.362V612h1.763v.957h-1.763v3.944q0 .705.239 1.005.239.301.793.301.423 0 .731-.232zM188.06 612l-3.22 8.121q-.861 2.174-2.42 2.174-.438 0-.732-.089v-1.005q.363.123.664.123.847 0 1.271-1.012l.561-1.326-2.735-6.986h1.244l1.894 5.387q.035.102.143.533h.041q.035-.164.137-.52l1.989-5.4zm2.358 5.988h-.027v4.232h-1.121V612h1.121v1.23h.027q.827-1.394 2.42-1.394 1.353 0 2.112.943.759.937.759 2.516 0 1.757-.855 2.816-.854 1.053-2.337 1.053-1.36 0-2.099-1.176m-.027-2.823v.978q0 .868.56 1.476.567.602 1.436.602 1.019 0 1.592-.78.582-.778.582-2.167 0-1.169-.54-1.832-.541-.663-1.463-.663-.978 0-1.573.684-.594.676-.594 1.702m12.735.615h-4.942q.027 1.17.628 1.805.603.636 1.655.636 1.182 0 2.174-.78v1.053q-.924.67-2.441.67-1.483 0-2.331-.95-.848-.957-.848-2.687 0-1.633.923-2.659.93-1.032 2.304-1.032t2.126.889.752 2.467zm-1.148-.95q-.007-.97-.472-1.511-.458-.54-1.278-.54-.793 0-1.347.568-.553.567-.684 1.483zM115.236 651.164q-2.078 0-3.342-1.374-1.251-1.374-1.251-3.575 0-2.372 1.278-3.774 1.286-1.408 3.479-1.408 2.024 0 3.268 1.367 1.244 1.368 1.244 3.576 0 2.399-1.271 3.794a3.8 3.8 0 0 1-.643.574l2.755 1.975h-2.085l-1.846-1.381a5.3 5.3 0 0 1-1.586.226m.082-9.092q-1.545 0-2.508 1.115t-.964 2.925q0 1.804.936 2.919.944 1.101 2.454 1.101 1.614 0 2.543-1.053.93-1.053.93-2.946 0-1.948-.902-3.001-.902-1.06-2.489-1.06M127.35 651h-1.121v-1.107h-.028q-.697 1.27-2.16 1.271-2.502 0-2.502-2.98V644h1.114v4.006q0 2.215 1.696 2.215.82 0 1.346-.602.534-.608.534-1.586V644h1.121zm7.28 0h-1.121v-1.094h-.028q-.73 1.258-2.153 1.258-1.046 0-1.64-.554-.588-.554-.588-1.469 0-1.962 2.31-2.284l2.099-.294q0-1.784-1.443-1.784-1.264 0-2.283.862v-1.149q1.032-.656 2.379-.656 2.468 0 2.468 2.611zm-1.121-3.541-1.689.232q-.779.11-1.175.39-.397.273-.397.978 0 .512.362.84.369.322.978.322.834 0 1.374-.581.546-.588.547-1.484zm4.354 3.541h-1.121v-10.363h1.121zm2.659.15a.753.753 0 0 1-.758-.765q0-.315.218-.54a.73.73 0 0 1 .54-.233q.322 0 .547.233.226.225.226.54a.74.74 0 0 1-.226.54.74.74 0 0 1-.547.225m6.064-.403v-1.203a3.32 3.32 0 0 0 2.017.677q1.476 0 1.476-.985a.8.8 0 0 0-.13-.471 1.2 1.2 0 0 0-.342-.349 2.4 2.4 0 0 0-.505-.267 20 20 0 0 0-.623-.253 9 9 0 0 1-.82-.369 2.7 2.7 0 0 1-.588-.423 1.7 1.7 0 0 1-.355-.541 1.9 1.9 0 0 1-.116-.704q0-.492.225-.868.226-.382.602-.636.375-.26.854-.389.486-.13.998-.13.91 0 1.627.314v1.135q-.772-.506-1.777-.506-.315 0-.567.075a1.4 1.4 0 0 0-.438.199 1 1 0 0 0-.28.314.8.8 0 0 0-.096.397q0 .273.096.458.102.184.294.328a2.2 2.2 0 0 0 .465.26q.273.115.622.252.464.178.834.37.369.185.629.423.26.232.396.541.144.307.144.731 0 .52-.233.902-.225.383-.608.636a2.8 2.8 0 0 1-.882.376 4.4 4.4 0 0 1-1.046.123q-1.08 0-1.873-.417m11.143-.068q-.807.485-1.915.485-1.497 0-2.419-.971-.916-.976-.916-2.529 0-1.73.991-2.775.991-1.053 2.645-1.053.923 0 1.627.342v1.148q-.778-.547-1.668-.547-1.073 0-1.763.773-.684.765-.684 2.016 0 1.231.643 1.942.648.711 1.736.711.916 0 1.723-.609zm4.621.485q-1.552 0-2.482-.977-.923-.985-.923-2.605 0-1.764.964-2.755t2.605-.991q1.565 0 2.44.964.882.963.882 2.673 0 1.674-.95 2.686-.944 1.005-2.536 1.005m.082-6.385q-1.08 0-1.709.739-.63.731-.629 2.023 0 1.243.635 1.962.636.717 1.703.718 1.086 0 1.668-.704.588-.705.588-2.003 0-1.313-.588-2.024-.582-.711-1.668-.711m8.845.356q-.294-.226-.847-.226-.719 0-1.203.677-.479.676-.479 1.846V651h-1.121v-7h1.121v1.442h.027q.24-.738.732-1.148a1.66 1.66 0 0 1 1.1-.417q.438 0 .67.096zm6.843 2.645h-4.942q.027 1.17.629 1.805.601.636 1.654.636 1.182 0 2.174-.78v1.053q-.923.67-2.441.67-1.483 0-2.331-.95-.847-.957-.847-2.687 0-1.633.922-2.659.93-1.032 2.304-1.032t2.126.889.752 2.467zm-1.148-.95q-.007-.97-.472-1.511-.457-.54-1.278-.54-.793 0-1.347.568-.554.567-.684 1.483z"/><g filter="url(#f)"><g clip-path="url(#g)"><path fill="#fff" d="M324 146a6 6 0 0 1 6-6h708c3.31 0 6 2.686 6 6v419c0 3.314-2.69 6-6 6H330a6 6 0 0 1-6-6z"/><path fill="#424242" d="M349.195 169.531q-1.265.657-3.148.657-2.437 0-3.906-1.54-1.47-1.539-1.469-4.039 0-2.687 1.648-4.343 1.656-1.657 4.18-1.657 1.625 0 2.695.461v1.844a4.8 4.8 0 0 0-2.5-.672q-1.82 0-2.953 1.164-1.125 1.164-1.125 3.11 0 1.85 1.055 2.953 1.054 1.093 2.773 1.093 1.587 0 2.75-.75zm8.063.469H355.5v-1.25h-.031q-.828 1.438-2.43 1.438-1.18 0-1.851-.641-.665-.64-.665-1.695 0-2.266 2.61-2.641l2.375-.336q0-1.711-1.625-1.711-1.43 0-2.578.984v-1.586q1.264-.75 2.922-.75 3.03 0 3.031 2.985zm-1.75-3.93-1.68.235q-.781.1-1.18.383-.39.273-.39.968 0 .508.359.836.368.32.977.32.828 0 1.367-.578.547-.585.547-1.468zm15.93 3.93h-1.813v-4.359q0-1.258-.359-1.821-.352-.562-1.196-.562-.71 0-1.211.711-.492.71-.492 1.703V170h-1.82v-4.508q0-2.234-1.578-2.234-.735 0-1.211.672-.47.671-.469 1.742V170h-1.812v-8h1.812v1.266h.031q.868-1.454 2.524-1.454.828 0 1.445.461.625.454.852 1.196.89-1.657 2.656-1.657 2.64 0 2.641 3.258zm4.054-1.18h-.031v4.86h-1.813V162h1.813v1.406h.031q.93-1.594 2.719-1.594 1.524 0 2.375 1.071.852 1.07.852 2.875 0 2-.961 3.203-.962 1.203-2.625 1.203-1.532 0-2.36-1.344m-.047-3.156v.992q0 .875.555 1.485.563.609 1.422.609 1.008 0 1.578-.781.578-.789.578-2.196 0-1.18-.539-1.843-.531-.672-1.445-.672-.969 0-1.563.687-.585.689-.586 1.719M389.242 170h-1.758v-1.25h-.031q-.828 1.438-2.43 1.438-1.179 0-1.851-.641-.664-.64-.664-1.695 0-2.266 2.609-2.641l2.375-.336q0-1.711-1.625-1.711-1.43 0-2.578.984v-1.586q1.266-.75 2.922-.75 3.031 0 3.031 2.985zm-1.75-3.93-1.68.235q-.78.1-1.179.383-.391.273-.391.968 0 .508.36.836.366.32.976.32.828 0 1.367-.578.547-.585.547-1.468zm4.883-5.75q-.445 0-.766-.289a.96.96 0 0 1-.312-.734q0-.445.312-.742.32-.297.766-.297.461 0 .781.297a.97.97 0 0 1 .321.742.97.97 0 0 1-.321.726 1.1 1.1 0 0 1-.781.297m.898 9.68h-1.812v-8h1.812zm9.657-.641q0 4.407-4.43 4.407-1.563 0-2.727-.524v-1.656q1.313.75 2.493.75 2.851 0 2.851-2.805v-.875h-.031q-.899 1.532-2.703 1.532-1.461 0-2.36-1.063-.89-1.07-.89-2.867 0-2.04.961-3.242.96-1.204 2.64-1.204 1.587 0 2.352 1.297h.031V162h1.813zm-1.797-3.023v-1.039q0-.844-.563-1.438a1.81 1.81 0 0 0-1.39-.601q-1.032 0-1.618.765-.578.759-.578 2.125 0 1.18.555 1.891.563.703 1.484.703.938 0 1.524-.672.586-.68.586-1.734M412.414 170h-1.812v-4.508q0-2.242-1.586-2.242-.828 0-1.368.625-.539.616-.539 1.563V170h-1.82v-8h1.82v1.328h.032q.898-1.515 2.593-1.516 1.305 0 1.993.852.687.844.687 2.445zm13.75 0h-1.812v-4.508q0-2.242-1.586-2.242-.828 0-1.368.625-.539.616-.539 1.563V170h-1.82v-8h1.82v1.328h.032q.898-1.515 2.593-1.516 1.305 0 1.993.852.687.844.687 2.445zm8.359 0h-1.757v-1.25h-.032q-.828 1.438-2.429 1.438-1.18 0-1.852-.641-.664-.64-.664-1.695 0-2.266 2.609-2.641l2.375-.336q0-1.711-1.625-1.711-1.43 0-2.578.984v-1.586q1.266-.75 2.922-.75 3.031 0 3.031 2.985zm-1.75-3.93-1.679.235q-.781.1-1.18.383-.39.273-.391.968 0 .508.36.836.367.32.976.32.828 0 1.368-.578.546-.585.546-1.468zm15.93 3.93h-1.812v-4.359q0-1.258-.36-1.821-.351-.562-1.195-.562-.711 0-1.211.711-.492.71-.492 1.703V170h-1.821v-4.508q0-2.234-1.578-2.234-.734 0-1.211.672-.468.671-.468 1.742V170h-1.813v-8h1.813v1.266h.031q.867-1.454 2.523-1.454.828 0 1.446.461.624.454.851 1.196.89-1.657 2.656-1.657 2.641 0 2.641 3.258zm8.985-3.508h-5.454q.032 1.11.68 1.711.657.602 1.797.602 1.281 0 2.351-.766v1.461q-1.093.688-2.89.688-1.766 0-2.774-1.086-1-1.095-1-3.071 0-1.868 1.102-3.039 1.11-1.18 2.75-1.18t2.539 1.055.899 2.93zm-1.75-1.281q-.008-.976-.461-1.516-.454-.547-1.25-.547-.781 0-1.329.571-.538.57-.664 1.492z"/><g clip-path="url(#h)"><g clip-path="url(#i)"><path fill="#fff" d="M340 190a4 4 0 0 1 4-4h313a4 4 0 0 1 4 4v24a4 4 0 0 1-4 4H344a4 4 0 0 1-4-4z"/><path fill="#242424" d="M357.906 206.679q-.807.485-1.914.485-1.497 0-2.42-.971-.915-.977-.916-2.529 0-1.73.991-2.775.992-1.053 2.646-1.053.923 0 1.627.342v1.148q-.78-.547-1.668-.547-1.073 0-1.764.773-.683.765-.683 2.016 0 1.231.642 1.942.65.711 1.737.711.915 0 1.722-.609zm4.621.485q-1.551 0-2.481-.977-.923-.985-.923-2.605 0-1.764.964-2.755t2.604-.991q1.566 0 2.441.964.882.963.882 2.673 0 1.675-.951 2.686-.942 1.005-2.536 1.005m.082-6.385q-1.08 0-1.709.739-.629.731-.629 2.023 0 1.244.636 1.962.636.717 1.702.718 1.088 0 1.668-.704.588-.704.588-2.003 0-1.313-.588-2.024-.58-.711-1.668-.711M373.615 207h-1.121v-3.992q0-2.229-1.627-2.229a1.77 1.77 0 0 0-1.394.636q-.547.629-.547 1.593V207h-1.121v-7h1.121v1.162h.027q.793-1.326 2.297-1.326 1.148 0 1.757.745.608.738.608 2.14zm5.366-.068q-.397.218-1.045.218-1.839 0-1.839-2.05v-4.143h-1.203V200h1.203v-1.709l1.121-.362V200h1.763v.957h-1.763v3.944q0 .705.239 1.005.24.301.793.301.424 0 .731-.232zm6.508.068h-1.121v-1.094h-.027q-.732 1.258-2.153 1.258-1.047 0-1.641-.554-.588-.554-.588-1.469 0-1.962 2.311-2.284l2.098-.294q0-1.784-1.442-1.784-1.265 0-2.283.862v-1.149q1.032-.656 2.378-.656 2.469 0 2.468 2.611zm-1.121-3.541-1.688.232q-.78.11-1.176.39-.396.273-.397.978 0 .512.363.84.37.322.977.322.834 0 1.374-.581.547-.588.547-1.484zm3.808-5.236a.713.713 0 0 1-.725-.725.7.7 0 0 1 .212-.519.7.7 0 0 1 .513-.212q.308 0 .519.212a.68.68 0 0 1 .219.519.69.69 0 0 1-.219.513.7.7 0 0 1-.519.212m.547 8.777h-1.121v-7h1.121zm8.08 0h-1.121v-3.992q0-2.229-1.627-2.229a1.77 1.77 0 0 0-1.395.636q-.547.629-.547 1.593V207h-1.121v-7h1.121v1.162h.028q.792-1.326 2.297-1.326 1.148 0 1.756.745.609.738.609 2.14zm1.695-.253v-1.203a3.32 3.32 0 0 0 2.017.677q1.476 0 1.476-.985a.8.8 0 0 0-.13-.471 1.2 1.2 0 0 0-.341-.349q-.212-.15-.506-.267a21 21 0 0 0-.622-.253 9 9 0 0 1-.821-.369 2.7 2.7 0 0 1-.588-.423 1.7 1.7 0 0 1-.355-.541 1.9 1.9 0 0 1-.116-.704q0-.492.225-.868.226-.382.602-.636.376-.26.854-.389.486-.13.998-.13.91 0 1.627.314v1.135q-.772-.506-1.777-.506-.315 0-.567.075a1.4 1.4 0 0 0-.438.199 1 1 0 0 0-.28.314.8.8 0 0 0-.096.397q0 .273.096.458.102.184.294.328a2.2 2.2 0 0 0 .465.26q.273.115.622.252.465.178.834.37.368.184.629.423.26.232.396.541.144.307.144.731 0 .52-.233.902-.225.383-.608.636a2.8 2.8 0 0 1-.882.376 4.4 4.4 0 0 1-1.046.123q-1.08 0-1.873-.417"/><path fill="#616161" d="M646.853 199.646a.5.5 0 0 1 .001.707l-5.465 5.484a.55.55 0 0 1-.779 0l-5.465-5.484a.5.5 0 1 1 .708-.706l5.146 5.165 5.147-5.165a.5.5 0 0 1 .707-.001"/></g><path stroke="#d1d1d1" d="M344 186.5h313a3.5 3.5 0 0 1 3.5 3.5v24a3.5 3.5 0 0 1-3.5 3.5H344a3.5 3.5 0 0 1-3.5-3.5v-24a3.5 3.5 0 0 1 3.5-3.5Z"/><path fill="#616161" d="M340 217h321v1H340z"/></g><g clip-path="url(#j)"><path fill="#fff" d="M344 226.5h313a3.5 3.5 0 0 1 3.5 3.5v24a3.5 3.5 0 0 1-3.5 3.5H344a3.5 3.5 0 0 1-3.5-3.5v-24a3.5 3.5 0 0 1 3.5-3.5"/><path stroke="#d1d1d1" d="M344 226.5h313a3.5 3.5 0 0 1 3.5 3.5v24a3.5 3.5 0 0 1-3.5 3.5H344a3.5 3.5 0 0 1-3.5-3.5v-24a3.5 3.5 0 0 1 3.5-3.5Z"/><path fill="#707070" d="M358.48 247h-5.195v-9.803h4.977v1.039h-3.828v3.261h3.541v1.032h-3.541v3.432h4.046zm7.547 0h-1.121v-3.992q0-2.229-1.627-2.229a1.77 1.77 0 0 0-1.394.636q-.547.629-.547 1.593V247h-1.121v-7h1.121v1.162h.027q.794-1.326 2.297-1.326 1.149 0 1.757.745.608.738.608 2.14zm5.367-.068q-.397.218-1.046.218-1.839 0-1.839-2.05v-4.143h-1.203V240h1.203v-1.709l1.121-.362V240h1.764v.957h-1.764v3.944q0 .705.239 1.005.24.301.793.301.424 0 .732-.232zm7.123-3.152h-4.943q.027 1.17.629 1.805.602.636 1.654.636 1.183 0 2.174-.78v1.053q-.922.67-2.44.67-1.484 0-2.331-.95-.848-.957-.848-2.687 0-1.633.923-2.659.93-1.032 2.304-1.032t2.126.889.752 2.467zm-1.149-.95q-.007-.97-.472-1.511-.457-.54-1.278-.54-.792 0-1.347.568-.554.567-.683 1.483zm6.501-1.695q-.293-.226-.848-.226-.717 0-1.203.677-.478.676-.478 1.846V247h-1.121v-7h1.121v1.442h.027q.24-.738.732-1.148a1.66 1.66 0 0 1 1.1-.417q.438 0 .67.096zm8.518-3.514a1.5 1.5 0 0 0-.745-.184q-1.176 0-1.176 1.483V240h1.64v.957h-1.64V247h-1.114v-6.043h-1.197V240h1.197v-1.135q0-1.1.635-1.736.636-.643 1.586-.643.513 0 .814.123zm1.504.602a.713.713 0 0 1-.725-.725.7.7 0 0 1 .212-.519.7.7 0 0 1 .513-.212q.307 0 .519.212a.68.68 0 0 1 .219.519.69.69 0 0 1-.219.513.7.7 0 0 1-.519.212m.547 8.777h-1.122v-7h1.122zm3.39 0h-1.121v-10.363h1.121zm5.517-.068q-.397.218-1.046.218-1.839 0-1.839-2.05v-4.143h-1.203V240h1.203v-1.709l1.121-.362V240h1.764v.957h-1.764v3.944q0 .705.239 1.005.24.301.793.301.425 0 .732-.232zm7.123-3.152h-4.943q.028 1.17.629 1.805.602.636 1.655.636 1.183 0 2.173-.78v1.053q-.922.67-2.44.67-1.483 0-2.331-.95-.848-.957-.848-2.687 0-1.633.923-2.659.93-1.032 2.304-1.032t2.126.889.752 2.467zm-1.149-.95q-.006-.97-.471-1.511-.459-.54-1.279-.54-.792 0-1.346.568-.553.567-.684 1.483zm6.501-1.695q-.294-.226-.847-.226-.719 0-1.203.677-.479.676-.479 1.846V247h-1.121v-7h1.121v1.442h.027q.24-.738.732-1.148a1.66 1.66 0 0 1 1.1-.417q.438 0 .67.096zm8.306 5.797q-.396.218-1.046.218-1.839 0-1.839-2.05v-4.143h-1.203V240h1.203v-1.709l1.121-.362V240h1.764v.957h-1.764v3.944q0 .705.24 1.005.238.301.793.301.423 0 .731-.232zm7.123-3.152h-4.942q.027 1.17.629 1.805.601.636 1.654.636 1.182 0 2.174-.78v1.053q-.923.67-2.441.67-1.484 0-2.331-.95-.847-.957-.847-2.687 0-1.633.922-2.659.93-1.032 2.304-1.032t2.126.889.752 2.467zm-1.148-.95q-.007-.97-.472-1.511-.458-.54-1.278-.54-.794 0-1.347.568-.553.567-.684 1.483zm7.963-2.83-2.351 3.541 2.31 3.459h-1.305l-1.374-2.27a14 14 0 0 1-.308-.533h-.027q-.034.062-.321.533l-1.402 2.27h-1.292l2.386-3.432-2.283-3.568h1.305l1.354 2.393q.15.266.294.546h.027l1.75-2.939zm4.56 6.932q-.396.218-1.046.218-1.839 0-1.839-2.05v-4.143h-1.203V240h1.203v-1.709l1.121-.362V240h1.764v.957h-1.764v3.944q0 .705.24 1.005.238.301.793.301.423 0 .731-.232z"/><path fill="#424242" d="M525 242a.5.5 0 0 1 .5-.5h3v-3a.5.5 0 0 1 1 0v3h3a.5.5 0 0 1 0 1h-3v3a.5.5 0 0 1-1 0v-3h-3a.5.5 0 0 1-.5-.5m4 8a8 8 0 1 0 0-16 8 8 0 0 0 0 16m0-1a7 7 0 1 1 0-14 7 7 0 0 1 0 14M550.605 246h-1.089l-.891-2.355h-3.563l-.837 2.355h-1.096l3.223-8.402h1.019zm-2.302-3.24-1.319-3.58a3.5 3.5 0 0 1-.129-.563h-.023a3 3 0 0 1-.135.563l-1.306 3.58zm8.537 3.24h-.961v-1.02h-.024q-.667 1.161-2.062 1.161-1.13 0-1.811-.803-.673-.809-.673-2.197 0-1.489.75-2.385.75-.897 1.998-.897 1.236 0 1.798.973h.024v-3.715h.961zm-.961-2.713v-.885q0-.726-.481-1.23-.48-.504-1.218-.504-.879 0-1.383.644-.504.645-.504 1.782 0 1.037.48 1.64.487.598 1.301.598.803 0 1.301-.58.504-.58.504-1.465m8.027 2.713h-.961v-1.02h-.023q-.668 1.161-2.063 1.161-1.13 0-1.81-.803-.674-.809-.674-2.197 0-1.489.75-2.385.75-.897 1.998-.897 1.236 0 1.799.973h.023v-3.715h.961zm-.961-2.713v-.885q0-.726-.48-1.23t-1.219-.504q-.879 0-1.383.644-.504.645-.504 1.782 0 1.037.481 1.64.486.598 1.301.598.802 0 1.3-.58.504-.58.504-1.465M573.439 246h-.96v-.938h-.024q-.627 1.079-1.846 1.079-.896 0-1.406-.475-.504-.474-.504-1.26 0-1.681 1.981-1.957l1.799-.252q0-1.529-1.237-1.529-1.083 0-1.957.738v-.984q.885-.563 2.039-.563 2.115 0 2.115 2.239zm-.96-3.035-1.448.199q-.668.094-1.008.334-.339.235-.339.838a.93.93 0 0 0 .31.721q.316.275.838.275.715 0 1.178-.498.468-.504.469-1.272zm7.892 3.035h-.961v-1.02h-.023q-.668 1.161-2.063 1.161-1.13 0-1.81-.803-.675-.809-.674-2.197 0-1.489.75-2.385.75-.897 1.998-.897 1.236 0 1.799.973h.023v-3.715h.961zm-.961-2.713v-.885q0-.726-.48-1.23-.481-.504-1.219-.504-.879 0-1.383.644-.504.645-.504 1.782 0 1.037.481 1.64.486.598 1.3.598.803 0 1.301-.58.504-.58.504-1.465m8.028 2.713h-.961v-1.02h-.024q-.668 1.161-2.062 1.161-1.131 0-1.811-.803-.674-.809-.674-2.197 0-1.489.75-2.385.75-.897 1.998-.897 1.237 0 1.799.973h.024v-3.715h.961zm-.961-2.713v-.885q0-.726-.481-1.23-.48-.504-1.219-.504-.88 0-1.382.644-.504.645-.504 1.782 0 1.037.48 1.64.486.598 1.301.598.803 0 1.301-.58.504-.58.504-1.465m3.398-4.81a.6.6 0 0 1-.439-.176.6.6 0 0 1-.182-.446.6.6 0 0 1 .182-.445.6.6 0 0 1 .439-.181q.264 0 .445.181a.59.59 0 0 1 .188.445.6.6 0 0 1-.188.44.6.6 0 0 1-.445.182m.469 7.523h-.961v-6h.961zm4.728-.059q-.34.188-.896.188-1.576 0-1.576-1.758v-3.551h-1.032V240h1.032v-1.465l.961-.31V240h1.511v.82h-1.511v3.381q0 .604.205.861.204.258.679.258.364 0 .627-.199zm1.776-7.464a.61.61 0 0 1-.621-.622q0-.269.181-.445a.6.6 0 0 1 .44-.181q.263 0 .445.181a.58.58 0 0 1 .187.445.6.6 0 0 1-.187.44.6.6 0 0 1-.445.182m.468 7.523h-.961v-6h.961zm4.454.141q-1.33 0-2.127-.838-.792-.844-.791-2.233 0-1.512.826-2.361.827-.85 2.232-.85 1.342 0 2.092.827.756.825.756 2.291 0 1.435-.815 2.302-.808.862-2.173.862m.07-5.473q-.926 0-1.465.633-.539.627-.539 1.734 0 1.067.545 1.682.544.615 1.459.615.932 0 1.43-.603.503-.604.503-1.717 0-1.125-.503-1.735-.498-.609-1.43-.609m9.433 5.332h-.961v-3.422q0-1.91-1.394-1.91-.72 0-1.195.545-.47.538-.469 1.365V246h-.961v-6h.961v.996h.023q.68-1.137 1.969-1.137.984 0 1.506.639.521.633.521 1.834zm6.112 0h-.961v-.938h-.024q-.627 1.079-1.845 1.079-.897 0-1.407-.475-.504-.474-.503-1.26 0-1.681 1.98-1.957l1.799-.252q0-1.529-1.236-1.529-1.085 0-1.958.738v-.984q.885-.563 2.04-.563 2.115 0 2.115 2.239zm-.961-3.035-1.447.199q-.669.094-1.008.334-.34.235-.34.838a.93.93 0 0 0 .31.721q.317.275.838.275.715 0 1.178-.498.47-.504.469-1.272zm3.732 3.035h-.961v-8.883h.961zm9.955-6-2.39 6h-.944l-2.273-6h1.055l1.523 4.359q.17.481.211.838h.023q.059-.451.188-.814l1.594-4.383zm5.332 6h-.961v-.938h-.023q-.627 1.079-1.846 1.079-.896 0-1.406-.475-.504-.474-.504-1.26 0-1.681 1.981-1.957l1.798-.252q0-1.529-1.236-1.529-1.084 0-1.957.738v-.984q.885-.563 2.039-.563 2.115 0 2.115 2.239zm-.961-3.035-1.447.199q-.668.094-1.008.334-.339.235-.339.838a.93.93 0 0 0 .31.721q.316.275.838.275.714 0 1.178-.498.468-.504.468-1.272zm3.733 3.035h-.961v-8.883h.961zm6.797 0h-.961v-.949h-.024q-.597 1.09-1.851 1.09-2.145 0-2.145-2.555V240h.955v3.434q0 1.898 1.453 1.898.704 0 1.155-.516.457-.52.457-1.359V240h.961zm6.767-2.76h-4.236q.024 1.002.539 1.547.516.545 1.418.545 1.014 0 1.863-.668v.902q-.79.575-2.092.575-1.27 0-1.998-.815-.726-.82-.726-2.303 0-1.4.791-2.279.796-.885 1.974-.885 1.179 0 1.823.762t.644 2.115zm-.984-.814q-.006-.833-.404-1.295-.393-.463-1.096-.463-.68 0-1.154.486-.475.487-.586 1.272z"/><path fill="#616161" d="M340 257h321v1H340z"/></g><mask id="k" fill="#fff"><path d="M340 270a4 4 0 0 1 4-4h204a4 4 0 0 1 4 4v24a4 4 0 0 1-4 4H344a4 4 0 0 1-4-4z"/></mask><path fill="#fff" d="M340 270a4 4 0 0 1 4-4h204a4 4 0 0 1 4 4v24a4 4 0 0 1-4 4H344a4 4 0 0 1-4-4z"/><path fill="#d1d1d1" d="M344 266v1h204v-2H344zm208 4h-1v24h2v-24zm-4 28v-1H344v2h204zm-208-4h1v-24h-2v24zm4 4v-1a3 3 0 0 1-3-3h-2a5 5 0 0 0 5 5zm208-4h-1a3 3 0 0 1-3 3v2a5 5 0 0 0 5-5zm-4-28v1a3 3 0 0 1 3 3h2a5 5 0 0 0-5-5zm-204 0v-1a5 5 0 0 0-5 5h2a3 3 0 0 1 3-3z" mask="url(#k)"/><path fill="#242424" d="M362 274.5a.5.5 0 0 1 .5.5v6.5h6.5a.5.5 0 0 1 0 1h-6.5v6.5a.5.5 0 0 1-1 0v-6.5H355a.5.5 0 0 1 0-1h6.5V275a.5.5 0 0 1 .5-.5M387.263 287h-1.784l-.882-2.495h-3.856l-.847 2.495h-1.778l3.671-9.803h1.832zm-3.097-3.821-1.36-3.91a5 5 0 0 1-.13-.616h-.028q-.061.39-.136.616l-1.347 3.91zM394.803 287h-1.586v-1.189h-.028q-.765 1.353-2.358 1.353-1.292 0-2.071-.936-.773-.944-.773-2.564 0-1.736.855-2.782.86-1.046 2.29-1.046 1.415 0 2.057 1.135h.028v-4.334h1.586zm-1.566-3.199v-.916q0-.746-.485-1.265-.486-.519-1.237-.519-.89 0-1.402.663-.506.663-.506 1.839 0 1.065.486 1.688.492.615 1.319.615.813 0 1.319-.594.506-.602.506-1.511M403.238 287h-1.586v-1.189h-.027q-.766 1.353-2.358 1.353-1.293 0-2.072-.936-.772-.944-.772-2.564 0-1.736.854-2.782.862-1.046 2.29-1.046 1.416 0 2.058 1.135h.027v-4.334h1.586zm-1.565-3.199v-.916q0-.746-.485-1.265-.486-.519-1.238-.519-.888 0-1.401.663-.506.663-.506 1.839 0 1.065.485 1.688.492.615 1.32.615.813 0 1.319-.594.506-.602.506-1.511M414.538 287H413v-1.094h-.027q-.725 1.258-2.126 1.258-1.033 0-1.62-.56-.582-.561-.581-1.484 0-1.982 2.283-2.31l2.078-.294q0-1.497-1.422-1.497-1.251 0-2.256.861v-1.388q1.108-.656 2.557-.656 2.652 0 2.652 2.611zm-1.531-3.438-1.47.205q-.684.089-1.032.335-.342.239-.342.847 0 .444.315.732.321.28.854.28.725 0 1.196-.506.479-.513.479-1.285zm9.837 3.438h-1.586v-1.189h-.028q-.765 1.353-2.358 1.353-1.292 0-2.071-.936-.773-.944-.773-2.564 0-1.736.855-2.782.86-1.046 2.29-1.046 1.415 0 2.057 1.135h.028v-4.334h1.586zm-1.566-3.199v-.916q0-.746-.485-1.265-.486-.519-1.237-.519-.89 0-1.402.663-.506.663-.506 1.839 0 1.065.486 1.688.492.615 1.319.615.813 0 1.319-.594.506-.602.506-1.511M431.279 287h-1.586v-1.189h-.027q-.766 1.353-2.358 1.353-1.293 0-2.072-.936-.772-.944-.772-2.564 0-1.736.854-2.782.862-1.046 2.29-1.046 1.416 0 2.058 1.135h.027v-4.334h1.586zm-1.565-3.199v-.916q0-.746-.485-1.265-.486-.519-1.238-.519-.888 0-1.401.663-.506.663-.506 1.839 0 1.065.485 1.688.492.615 1.32.615.813 0 1.319-.594.506-.602.506-1.511m4.436-5.271a.97.97 0 0 1-.67-.253.84.84 0 0 1-.273-.642q0-.39.273-.65a.95.95 0 0 1 .67-.259.97.97 0 0 1 .684.259.85.85 0 0 1 .28.65.85.85 0 0 1-.28.636.97.97 0 0 1-.684.259m.787 8.47h-1.586v-7h1.586zm5.769-.075q-.465.232-1.224.232-2.037 0-2.037-1.955v-3.958h-1.169V280h1.169v-1.62l1.586-.451V280h1.675v1.244h-1.675v3.5q0 .622.226.889.225.267.752.266.403 0 .697-.232zm2.167-8.395a.96.96 0 0 1-.67-.253.84.84 0 0 1-.273-.642q0-.39.273-.65a.95.95 0 0 1 .67-.259.97.97 0 0 1 .684.259q.28.26.28.65a.85.85 0 0 1-.28.636.97.97 0 0 1-.684.259m.786 8.47h-1.586v-7h1.586zm5.182.164q-1.62 0-2.591-.977-.964-.985-.964-2.605 0-1.764 1.005-2.755 1.011-.991 2.721-.991 1.64 0 2.556.964.916.963.916 2.673 0 1.675-.991 2.686-.984 1.005-2.652 1.005m.075-6.063q-.93 0-1.47.649-.54.65-.54 1.791 0 1.101.547 1.736.547.63 1.463.629.936 0 1.436-.622.505-.623.505-1.77 0-1.156-.505-1.785-.5-.628-1.436-.628M460.339 287h-1.586v-3.944q0-1.962-1.388-1.962-.725 0-1.196.547-.472.54-.472 1.367V287h-1.593v-7h1.593v1.162h.028q.786-1.326 2.269-1.326 1.141 0 1.743.745.602.738.602 2.14zm7.314 0h-1.538v-1.094h-.027q-.725 1.258-2.126 1.258-1.032 0-1.62-.56-.582-.561-.581-1.484 0-1.982 2.283-2.31l2.078-.294q0-1.497-1.422-1.497-1.251 0-2.256.861v-1.388q1.108-.656 2.557-.656 2.652 0 2.652 2.611zm-1.531-3.438-1.47.205q-.683.089-1.032.335-.342.239-.342.847 0 .444.315.732.321.28.854.28.725 0 1.197-.506.478-.513.478-1.285zm5.066 3.438h-1.593v-10.363h1.593zm5.489-.219v-1.469a3.16 3.16 0 0 0 1.962.676q1.435 0 1.435-.847a.66.66 0 0 0-.123-.404 1.1 1.1 0 0 0-.335-.3 2.5 2.5 0 0 0-.492-.233l-.629-.232a7 7 0 0 1-.779-.363 2.5 2.5 0 0 1-.574-.43 1.7 1.7 0 0 1-.342-.554 2 2 0 0 1-.116-.718q0-.505.239-.888.24-.39.642-.65.404-.267.916-.396a4 4 0 0 1 1.06-.137q.97 0 1.736.294v1.388q-.738-.506-1.695-.506-.3 0-.547.061a1.4 1.4 0 0 0-.41.171.8.8 0 0 0-.267.267.6.6 0 0 0-.095.335q0 .225.095.383a.9.9 0 0 0 .281.28q.191.115.451.219.267.095.608.211.451.185.807.376.361.192.615.438.254.239.39.56.136.315.136.752 0 .534-.246.93a2.05 2.05 0 0 1-.656.656q-.41.26-.95.383-.534.13-1.128.13-1.149 0-1.989-.383m10.172.144q-.465.232-1.224.232-2.037 0-2.037-1.955v-3.958h-1.169V280h1.169v-1.62l1.586-.451V280h1.675v1.244h-1.675v3.5q0 .622.225.889.226.267.752.266.404 0 .698-.232zm6.74.075h-1.538v-1.094h-.028q-.724 1.258-2.126 1.258-1.032 0-1.62-.56-.58-.561-.581-1.484 0-1.982 2.283-2.31l2.079-.294q0-1.497-1.422-1.497-1.251 0-2.256.861v-1.388q1.107-.656 2.557-.656 2.652 0 2.652 2.611zm-1.531-3.438-1.47.205q-.684.089-1.032.335-.342.239-.342.847 0 .444.314.732.322.28.855.28.725 0 1.196-.506.479-.513.479-1.285zm7.164 3.363q-.465.232-1.224.232-2.037 0-2.037-1.955v-3.958h-1.169V280h1.169v-1.62l1.586-.451V280h1.675v1.244h-1.675v3.5q0 .622.225.889.227.267.752.266.404 0 .698-.232zm7.212-2.994h-4.772q.027.97.595 1.497.575.526 1.572.526a3.46 3.46 0 0 0 2.058-.67v1.278q-.957.602-2.53.602-1.544 0-2.426-.95-.876-.957-.875-2.687 0-1.633.964-2.659.97-1.032 2.406-1.032 1.435 0 2.221.923.787.923.787 2.563zm-1.532-1.121q-.007-.855-.403-1.327-.396-.478-1.094-.478a1.55 1.55 0 0 0-1.162.499q-.471.5-.581 1.306zM518.41 287h-1.586v-3.814q0-1.101-.314-1.593-.308-.492-1.046-.492-.622 0-1.06.622-.43.621-.43 1.49V287h-1.593v-3.944q0-1.955-1.381-1.955-.643 0-1.06.587-.41.589-.41 1.525V287h-1.586v-7h1.586v1.107h.028q.757-1.27 2.208-1.271.724 0 1.264.403.547.397.745 1.046.78-1.449 2.325-1.449 2.31 0 2.31 2.851zm7.861-3.069H521.5q.027.97.595 1.497.575.526 1.572.526a3.46 3.46 0 0 0 2.058-.67v1.278q-.957.602-2.53.602-1.545 0-2.426-.95-.875-.957-.875-2.687 0-1.633.963-2.659.972-1.032 2.407-1.032t2.221.923.786 2.563zm-1.531-1.121q-.006-.855-.403-1.327-.396-.478-1.094-.478-.684 0-1.162.499-.471.5-.581 1.306zm9.277 4.19h-1.586v-3.944q0-1.962-1.388-1.962-.725 0-1.196.547-.472.54-.472 1.367V287h-1.593v-7h1.593v1.162h.027q.786-1.326 2.27-1.326 1.141 0 1.743.745.602.738.602 2.14zm5.632-.075q-.464.232-1.223.232-2.037 0-2.037-1.955v-3.958h-1.169V280h1.169v-1.62l1.586-.451V280h1.674v1.244h-1.674v3.5q0 .622.225.889.226.267.752.266.403 0 .697-.232z"/></g></g><path fill="#fff" d="M64 32h1004v104H64z"/><path fill="#242424" d="M97.287 67.969h-5.234v4.209h4.824v1.963h-4.824V80h-2.325V65.996h7.56zm3.389-.069q-.556 0-.957-.36-.39-.363-.39-.919t.39-.928a1.36 1.36 0 0 1 .957-.37q.576 0 .976.37.4.372.401.928 0 .527-.401.908a1.38 1.38 0 0 1-.976.371m1.123 12.1h-2.266V70h2.266zm5.244 0h-2.275V65.195h2.275zm8.232-.107q-.663.331-1.748.332-2.91 0-2.91-2.793v-5.655h-1.67V70h1.67v-2.314l2.266-.645V70h2.392v1.777h-2.392v5q0 .89.322 1.27t1.074.38q.576 0 .996-.331zm10.303-4.278h-6.816q.039 1.388.849 2.139.82.752 2.246.752 1.602 0 2.94-.957v1.826q-1.368.86-3.613.86-2.207 0-3.467-1.358-1.25-1.366-1.25-3.838 0-2.334 1.377-3.799 1.386-1.474 3.437-1.474 2.05 0 3.174 1.318 1.123 1.319 1.123 3.662zm-2.187-1.601q-.01-1.221-.577-1.895-.566-.684-1.562-.683-.976 0-1.66.712-.674.713-.83 1.866zm10.146-1.856q-.41-.322-1.182-.322-1.005 0-1.679.908-.674.91-.674 2.47V80h-2.266V70h2.266v2.06h.039q.332-1.055 1.016-1.64.693-.596 1.543-.596.615 0 .937.186zm1.113 7.53v-2.1q1.27.967 2.803.967 2.05 0 2.051-1.211a.93.93 0 0 0-.176-.576 1.6 1.6 0 0 0-.478-.43 3.6 3.6 0 0 0-.704-.332l-.898-.332a10 10 0 0 1-1.113-.518 3.6 3.6 0 0 1-.821-.615 2.5 2.5 0 0 1-.488-.791 2.9 2.9 0 0 1-.166-1.025q0-.723.342-1.27.342-.556.918-.928.576-.38 1.309-.566.732-.195 1.513-.195 1.387 0 2.481.42v1.982q-1.055-.723-2.422-.723-.43 0-.781.088-.343.088-.586.244a1.2 1.2 0 0 0-.381.381.87.87 0 0 0-.137.479q0 .322.137.547.136.225.4.4.273.165.645.313.38.135.869.302.644.264 1.152.537.518.274.879.625.361.342.557.801.195.45.195 1.074 0 .761-.352 1.328-.35.566-.937.938-.586.371-1.357.547a6.8 6.8 0 0 1-1.612.185q-1.64 0-2.842-.546"/><path fill="#424242" d="m1030.09 66.216.06-.07a.49.49 0 0 1 .63-.057l.07.057 5.15 5.147 5.15-5.147a.49.49 0 0 1 .63-.057l.07.057c.18.174.2.443.06.638l-.06.07-5.14 5.146 5.14 5.146c.18.174.2.443.06.638l-.06.07a.49.49 0 0 1-.63.057l-.07-.057-5.15-5.147-5.15 5.147a.49.49 0 0 1-.63.057l-.07-.057a.49.49 0 0 1-.06-.638l.06-.07 5.14-5.146-5.14-5.146a.49.49 0 0 1-.06-.638l.06-.07z"/><g clip-path="url(#l)"><path fill="#ebf3fc" d="M84 112c0-6.627 5.373-12 12-12h108c6.627 0 12 5.373 12 12s-5.373 12-12 12H96c-6.627 0-12-5.373-12-12"/><path fill="#115ea3" d="M92.574 115.678v-1.875q.51.428 1.108.644.597.211 1.207.211.357 0 .62-.064.27-.065.446-.176a.8.8 0 0 0 .27-.27.73.73 0 0 0-.053-.779 1.5 1.5 0 0 0-.387-.357 4 4 0 0 0-.574-.317 20 20 0 0 0-.72-.31q-.985-.411-1.472-1.002-.48-.592-.48-1.43 0-.656.264-1.125.263-.474.715-.779a3.2 3.2 0 0 1 1.054-.445q.598-.147 1.266-.147.656 0 1.16.082.51.076.938.24v1.752a3 3 0 0 0-.463-.258 3.3 3.3 0 0 0-.51-.181 3.7 3.7 0 0 0-1.02-.147q-.322 0-.586.065a1.4 1.4 0 0 0-.445.17.85.85 0 0 0-.281.269.681.681 0 0 0 .012.727q.112.164.316.316.206.147.498.293.293.141.662.293.504.211.903.451.404.235.69.533.288.3.44.686.153.381.153.891 0 .703-.27 1.183a2.2 2.2 0 0 1-.72.774q-.457.293-1.067.422a6 6 0 0 1-1.277.128q-.691 0-1.319-.117a4 4 0 0 1-1.078-.351m10.266.252q-.411.216-1.236.216-1.957 0-1.957-2.033v-2.748h-.973V110h.972v-1.295l1.846-.527V110h1.348v1.365h-1.348v2.426q0 .938.744.938.294 0 .604-.17zm6.041.07h-1.752v-.861h-.024q-.603 1.007-1.787 1.007-.873 0-1.377-.492-.498-.498-.498-1.324 0-1.746 2.069-2.016l1.629-.216q0-.985-1.067-.985-1.072 0-2.039.639v-1.395q.387-.199 1.055-.351a5.6 5.6 0 0 1 1.224-.152q2.567 0 2.567 2.56zm-1.74-2.438v-.404l-1.09.141q-.903.117-.903.814a.7.7 0 0 0 .217.522q.223.2.598.199.522 0 .849-.357.329-.364.329-.915m6.832 2.368q-.41.216-1.237.216-1.956 0-1.957-2.033v-2.748h-.972V110h.972v-1.295l1.846-.527V110h1.348v1.365h-1.348v2.426q0 .938.744.938.293 0 .604-.17zm6.75.07h-1.846v-.914h-.029q-.686 1.06-1.834 1.06-2.086 0-2.086-2.525V110h1.845v3.457q0 1.272 1.008 1.272.498 0 .797-.346.299-.352.299-.949V110h1.846zm1.172-.158v-1.5q.456.275.908.41.457.135.861.135.492 0 .774-.135.287-.135.287-.41a.38.38 0 0 0-.129-.293 1.2 1.2 0 0 0-.334-.205 3.4 3.4 0 0 0-.44-.158q-.24-.07-.463-.159a5 5 0 0 1-.632-.287 2 2 0 0 1-.457-.363 1.5 1.5 0 0 1-.282-.475 2 2 0 0 1-.093-.638q0-.504.216-.868.223-.363.586-.591.37-.235.838-.34.475-.111.985-.111.398 0 .808.064.41.059.809.176v1.429a2.9 2.9 0 0 0-.756-.304 3 3 0 0 0-.785-.106q-.182 0-.346.035a1 1 0 0 0-.281.094.5.5 0 0 0-.194.158.401.401 0 0 0 .036.498q.105.118.275.206.17.081.375.152.211.065.416.135.37.129.668.281t.51.357q.216.205.328.481.117.275.117.656 0 .533-.234.914-.23.375-.616.615a2.7 2.7 0 0 1-.884.34 4.8 4.8 0 0 1-1.037.111 5.4 5.4 0 0 1-1.834-.304m6.503-3.985a1.1 1.1 0 0 1-.761-.275.9.9 0 0 1-.305-.691q0-.423.311-.692a1.17 1.17 0 0 1 .785-.269q.474 0 .773.275.305.27.305.686a.88.88 0 0 1-.311.697q-.304.27-.797.269m0 4.289q-.456 0-.761-.281a.9.9 0 0 1-.305-.691q0-.422.311-.692a1.17 1.17 0 0 1 .785-.269q.474 0 .773.275.305.27.305.686a.9.9 0 0 1-.311.703q-.304.27-.797.269m12.551-.146h-1.09l-.89-2.355h-3.563l-.838 2.355h-1.095l3.222-8.402h1.02zm-2.303-3.24-1.318-3.58a3.5 3.5 0 0 1-.129-.563h-.023a3 3 0 0 1-.135.563l-1.307 3.58zm4.377 3.24h-.961v-8.883h.961zm2.907 0h-.961v-8.883h.961zm9.328-.275q-.692.416-1.641.416-1.283 0-2.074-.832-.785-.839-.785-2.168 0-1.484.849-2.379.85-.903 2.268-.903.79 0 1.395.293v.985a2.44 2.44 0 0 0-1.43-.469q-.92 0-1.512.662-.585.657-.586 1.729 0 1.054.551 1.664.557.609 1.488.609.786 0 1.477-.521zm5.748.275h-.961v-.938h-.024q-.626 1.079-1.845 1.079-.897 0-1.406-.475-.504-.474-.504-1.26 0-1.681 1.98-1.957l1.799-.252q0-1.529-1.236-1.529-1.084 0-1.957.738v-.984q.884-.563 2.039-.563 2.115 0 2.115 2.239zm-.961-3.035-1.447.199q-.669.094-1.008.334-.34.235-.34.838a.93.93 0 0 0 .311.721q.316.275.837.275.716 0 1.178-.498.47-.504.469-1.272zM171.336 116h-.961v-3.445q0-.996-.311-1.442-.304-.445-1.031-.445-.615 0-1.049.562-.427.563-.427 1.348V116h-.961v-3.562q0-1.77-1.366-1.77-.632 0-1.042.533-.411.528-.411 1.377V116h-.961v-6h.961v.949h.024q.639-1.09 1.863-1.09.615 0 1.072.346.458.34.627.897.669-1.243 1.992-1.243 1.981 0 1.981 2.444zm2.801-.867h-.024v3.627h-.961V110h.961v1.055h.024q.709-1.196 2.074-1.196 1.16 0 1.81.809.651.803.651 2.156 0 1.506-.733 2.414-.732.903-2.003.903-1.167 0-1.799-1.008m-.024-2.42v.838q0 .744.481 1.265.486.516 1.23.516.873 0 1.365-.668.499-.668.499-1.857 0-1.002-.463-1.571-.464-.568-1.254-.568-.838 0-1.348.586-.51.58-.51 1.459M184.502 116h-.961v-.938h-.023q-.628 1.079-1.846 1.079-.897 0-1.406-.475-.504-.474-.504-1.26 0-1.681 1.98-1.957l1.799-.252q0-1.529-1.236-1.529-1.084 0-1.957.738v-.984q.885-.563 2.039-.563 2.115 0 2.115 2.239zm-.961-3.035-1.447.199q-.669.094-1.008.334-.34.235-.34.838a.93.93 0 0 0 .311.721q.316.275.838.275.715 0 1.177-.498.47-.504.469-1.272zm3.264-4.488a.61.61 0 0 1-.621-.622q0-.269.181-.445a.6.6 0 0 1 .44-.181q.263 0 .445.181a.59.59 0 0 1 .188.445.6.6 0 0 1-.188.44.6.6 0 0 1-.445.182m.468 7.523h-.961v-6h.961zm7.067-.48q0 3.304-3.164 3.304-1.113 0-1.946-.422v-.961q1.014.563 1.934.563 2.215 0 2.215-2.356v-.656h-.024q-.685 1.149-2.062 1.149-1.12 0-1.805-.797-.68-.802-.679-2.151 0-1.529.732-2.431.738-.903 2.016-.903 1.212 0 1.798.973h.024V110h.961zm-.961-2.233v-.885q0-.714-.486-1.224a1.58 1.58 0 0 0-1.202-.51q-.89 0-1.394.65-.504.645-.504 1.811 0 1.002.48 1.605.487.598 1.284.598.808 0 1.312-.574.51-.574.51-1.471m7.887 2.713h-.961v-3.422q0-1.91-1.395-1.91-.72 0-1.195.545-.47.538-.469 1.365V116h-.961v-6h.961v.996h.024q.68-1.137 1.968-1.137.985 0 1.506.639.522.633.522 1.834zm1.453-.217v-1.031a2.84 2.84 0 0 0 1.728.58q1.266 0 1.266-.844a.7.7 0 0 0-.111-.404 1 1 0 0 0-.293-.299 2 2 0 0 0-.434-.228 15 15 0 0 0-.533-.217 8 8 0 0 1-.703-.317q-.3-.163-.504-.363a1.4 1.4 0 0 1-.305-.463 1.7 1.7 0 0 1-.1-.603q0-.423.194-.744.194-.329.515-.545a2.4 2.4 0 0 1 .733-.334q.415-.112.855-.112.78 0 1.395.27v.973q-.662-.435-1.524-.434-.269 0-.486.064a1.2 1.2 0 0 0-.375.17.8.8 0 0 0-.24.27.7.7 0 0 0-.082.34.84.84 0 0 0 .082.392.9.9 0 0 0 .252.282q.164.123.398.222.235.1.533.217.399.153.715.316.317.159.539.364.223.2.34.463.123.263.123.627 0 .444-.199.773-.194.328-.521.545a2.4 2.4 0 0 1-.756.322q-.428.105-.897.106-.925 0-1.605-.358"/></g><path fill="#fff" d="M64 579h1004v64H64z"/><path fill="#0f6cbd" d="M88 599a4 4 0 0 1 4-4h43a4 4 0 0 1 4 4v24a4 4 0 0 1-4 4H92a4 4 0 0 1-4-4z"/><path fill="#fff" d="M109.263 617h-1.784l-.882-2.495h-3.856l-.847 2.495h-1.778l3.671-9.803h1.832zm-3.097-3.821-1.36-3.91a5 5 0 0 1-.13-.616h-.028q-.061.39-.136.616l-1.347 3.91zM116.803 617h-1.586v-1.189h-.028q-.765 1.353-2.358 1.353-1.292 0-2.071-.936-.773-.944-.773-2.564 0-1.736.855-2.782.86-1.046 2.29-1.046 1.415 0 2.057 1.135h.028v-4.334h1.586zm-1.566-3.199v-.916q0-.746-.485-1.265-.486-.519-1.237-.519-.89 0-1.402.663-.506.663-.506 1.839 0 1.065.486 1.688.492.615 1.319.615.813 0 1.319-.594.507-.602.506-1.511M125.238 617h-1.586v-1.189h-.027q-.766 1.353-2.358 1.353-1.292 0-2.072-.936-.772-.944-.772-2.564 0-1.736.854-2.782.862-1.046 2.29-1.046 1.416 0 2.058 1.135h.027v-4.334h1.586zm-1.565-3.199v-.916q0-.746-.485-1.265-.486-.519-1.238-.519-.888 0-1.401.663-.506.663-.506 1.839 0 1.065.485 1.688.492.615 1.32.615.813 0 1.319-.594.506-.602.506-1.511"/><mask id="m" fill="#fff"><path d="M147 599a4 4 0 0 1 4-4h58a4 4 0 0 1 4 4v24a4 4 0 0 1-4 4h-58a4 4 0 0 1-4-4z"/></mask><path fill="#fff" d="M147 599a4 4 0 0 1 4-4h58a4 4 0 0 1 4 4v24a4 4 0 0 1-4 4h-58a4 4 0 0 1-4-4z"/><path fill="#d1d1d1" d="M151 595v1h58v-2h-58zm62 4h-1v24h2v-24zm-4 28v-1h-58v2h58zm-62-4h1v-24h-2v24zm4 4v-1a3 3 0 0 1-3-3h-2a5 5 0 0 0 5 5zm62-4h-1a3 3 0 0 1-3 3v2a5 5 0 0 0 5-5zm-4-28v1a3 3 0 0 1 3 3h2a5 5 0 0 0-5-5zm-58 0v-1a5 5 0 0 0-5 5h2a3 3 0 0 1 3-3z" mask="url(#m)"/><path fill="#242424" d="M167.046 616.59q-1.108.574-2.755.574-2.133 0-3.418-1.347t-1.285-3.534q0-2.351 1.442-3.801 1.449-1.449 3.658-1.449 1.421 0 2.358.404v1.613a4.2 4.2 0 0 0-2.188-.588q-1.592 0-2.584 1.018-.984 1.02-.984 2.721 0 1.62.923 2.584.923.957 2.427.957 1.388 0 2.406-.656zm7.055.41h-1.539v-1.094h-.027q-.725 1.258-2.126 1.258-1.032 0-1.62-.56-.58-.561-.581-1.484 0-1.982 2.283-2.31l2.078-.294q0-1.497-1.422-1.497-1.25 0-2.255.861v-1.388q1.107-.656 2.556-.656 2.653 0 2.653 2.611zm-1.532-3.438-1.469.205q-.684.089-1.033.335-.34.239-.341.847 0 .444.314.732.321.28.855.28.724 0 1.196-.506.478-.513.478-1.285zm9.707 3.438h-1.586v-3.944q0-1.962-1.387-1.962-.725 0-1.197.547-.471.54-.471 1.367V617h-1.593v-7h1.593v1.162h.027q.786-1.326 2.27-1.326 1.142 0 1.743.745.601.738.601 2.14zm6.953-.321q-.841.485-1.99.485-1.558 0-2.515-.971-.957-.976-.957-2.529 0-1.73 1.025-2.775 1.032-1.053 2.755-1.053.957 0 1.688.335v1.476q-.731-.546-1.558-.546-1.005 0-1.648.683-.642.677-.642 1.778 0 1.086.601 1.715.609.63 1.627.629.855 0 1.614-.608zm7.505-2.748h-4.771q.027.97.595 1.497.574.526 1.572.526a3.46 3.46 0 0 0 2.058-.67v1.278q-.958.603-2.53.602-1.545 0-2.427-.95-.875-.957-.875-2.687 0-1.633.964-2.659.971-1.032 2.407-1.032t2.221.923q.786.923.786 2.563zm-1.531-1.121q-.006-.855-.403-1.327-.397-.478-1.094-.478-.684 0-1.162.499-.472.5-.581 1.306zm4.635 4.19h-1.593v-10.363h1.593z"/></g></g><defs><clipPath id="b"><path fill="#fff" d="M64 32h1004v611H64z"/></clipPath><clipPath id="c"><path fill="#fff" d="M80 144a4 4 0 0 1 4-4h212a4 4 0 0 1 4 4v24a4 4 0 0 1-4 4H84a4 4 0 0 1-4-4z"/></clipPath><clipPath id="g"><path fill="#fff" d="M324 146a6 6 0 0 1 6-6h708c3.31 0 6 2.686 6 6v419c0 3.314-2.69 6-6 6H330a6 6 0 0 1-6-6z"/></clipPath><clipPath id="h"><path fill="#fff" d="M340 190a4 4 0 0 1 4-4h313a4 4 0 0 1 4 4v24a4 4 0 0 1-4 4H344a4 4 0 0 1-4-4z"/></clipPath><clipPath id="i"><path fill="#fff" d="M340 190a4 4 0 0 1 4-4h313a4 4 0 0 1 4 4v24a4 4 0 0 1-4 4H344a4 4 0 0 1-4-4z"/></clipPath><clipPath id="j"><path fill="#fff" d="M340 230a4 4 0 0 1 4-4h313a4 4 0 0 1 4 4v24a4 4 0 0 1-4 4H344a4 4 0 0 1-4-4z"/></clipPath><clipPath id="l"><path fill="#fff" d="M84 100h132v24H84z"/></clipPath><filter id="a" width="1132" height="739" x="0" y="0" color-interpolation-filters="sRGB" filterUnits="userSpaceOnUse"><feFlood flood-opacity="0" result="BackgroundImageFix"/><feColorMatrix in="SourceAlpha" result="hardAlpha" values="0 0 0 0 0 0 0 0 0 0 0 0 0 0 0 0 0 0 127 0"/><feOffset/><feGaussianBlur stdDeviation="4"/><feComposite in2="hardAlpha" operator="out"/><feColorMatrix values="0 0 0 0 0 0 0 0 0 0 0 0 0 0 0 0 0 0 0.2 0"/><feBlend in2="BackgroundImageFix" result="effect1_dropShadow_2378_222691"/><feColorMatrix in="SourceAlpha" result="hardAlpha" values="0 0 0 0 0 0 0 0 0 0 0 0 0 0 0 0 0 0 127 0"/><feOffset dy="32"/><feGaussianBlur stdDeviation="32"/><feComposite in2="hardAlpha" operator="out"/><feColorMatrix values="0 0 0 0 0 0 0 0 0 0 0 0 0 0 0 0 0 0 0.24 0"/><feBlend in2="effect1_dropShadow_2378_222691" result="effect2_dropShadow_2378_222691"/><feBlend in="SourceGraphic" in2="effect2_dropShadow_2378_222691" result="shape"/></filter><filter id="f" width="728" height="439" x="320" y="138" color-interpolation-filters="sRGB" filterUnits="userSpaceOnUse"><feFlood flood-opacity="0" result="BackgroundImageFix"/><feColorMatrix in="SourceAlpha" result="hardAlpha" values="0 0 0 0 0 0 0 0 0 0 0 0 0 0 0 0 0 0 127 0"/><feOffset/><feGaussianBlur stdDeviation="1"/><feComposite in2="hardAlpha" operator="out"/><feColorMatrix values="0 0 0 0 0 0 0 0 0 0 0 0 0 0 0 0 0 0 0.12 0"/><feBlend in2="BackgroundImageFix" result="effect1_dropShadow_2378_222691"/><feColorMatrix in="SourceAlpha" result="hardAlpha" values="0 0 0 0 0 0 0 0 0 0 0 0 0 0 0 0 0 0 127 0"/><feOffset dy="2"/><feGaussianBlur stdDeviation="2"/><feComposite in2="hardAlpha" operator="out"/><feColorMatrix values="0 0 0 0 0 0 0 0 0 0 0 0 0 0 0 0 0 0 0.14 0"/><feBlend in2="effect1_dropShadow_2378_222691" result="effect2_dropShadow_2378_222691"/><feBlend in="SourceGraphic" in2="effect2_dropShadow_2378_222691" result="shape"/></filter></defs></svg>